<?xml version="1.0" encoding="utf-8"?>
<!-- Generator: Adobe Illustrator 21.0.0, SVG Export Plug-In . SVG Version: 6.00 Build 0)  -->
<svg version="1.0" id="Layer_1" xmlns="http://www.w3.org/2000/svg" xmlns:xlink="http://www.w3.org/1999/xlink" x="0px" y="0px"
	 viewBox="0 0 67 67" style="enable-background:new 0 0 67 67;" xml:space="preserve">
<title>7Artboard 1</title>
<path d="M47.6,51.4H19.7c-2.1,0-3.9-1.7-3.9-3.9V19.6c0-2.1,1.7-3.9,3.9-3.9h27.9c2.1,0,3.9,1.7,3.9,3.9l0,0v27.9
	C51.5,49.7,49.8,51.4,47.6,51.4z M21.8,45.4h23.7V21.7H21.8L21.8,45.4z"/>
<path d="M49.3,67H17.7C7.9,67,0,59.1,0,49.3V17.7C0,7.9,7.9,0,17.7,0h31.6C59.1,0,67,7.9,67,17.7v31.6C67,59.1,59.1,67,49.3,67z
	 M17.7,6C11.2,6,6,11.2,6,17.7v31.6C6,55.8,11.2,61,17.7,61h31.6C55.8,61,61,55.8,61,49.3V17.7C61,11.2,55.8,6,49.3,6H17.7z"/>
</svg>
