<svg width="640" height="480" viewBox="0 0 640 480" fill="none" xmlns="http://www.w3.org/2000/svg">
<path d="M640 0H0V480H640V0Z" fill="#593EB6"/>
<path d="M187.534 231.111H0V248.889H187.534V231.111Z" fill="white"/>
<path d="M113.778 199.111H42.6667V279.111H113.778V199.111Z" fill="#593EB6" stroke="white" stroke-width="17.7778"/>
<path d="M640 231.111H452.466V248.889H640V231.111Z" fill="white"/>
<path d="M597.333 199.111H526.222V279.111H597.333V199.111Z" fill="#593EB6" stroke="white" stroke-width="17.7778"/>
<path d="M250.667 190.222H179.556V289.778H250.667V190.222Z" fill="#593EB6" stroke="white" stroke-width="17.7778"/>
<path d="M462.222 190.222H391.111V289.778H462.222V190.222Z" fill="#593EB6" stroke="white" stroke-width="17.7778"/>
<path d="M393.934 263.111H244.978V280.889H393.934V263.111Z" fill="white"/>
<path d="M318.608 168.034L318.391 176.207H314.339V186.283H310.843L311.065 195.939H307.013V205.535L303.405 205.655L303.794 215.192H299.742V224.008L296.301 223.948L296.079 234.444H292.527L292.472 243.201H290.03V253.277H285.534L286.089 291.963L290.03 291.843L290.085 301.859H292.472L292.527 311.515H296.079V321.891H313.951L315.56 356.618H324.829H325.661L326.438 321.891H344.254V311.515H347.806L347.917 301.859H350.248L350.304 291.843L354.244 291.963L354.799 253.277H350.304V243.201H347.917L347.861 234.444H344.254L344.032 223.948L340.591 224.008V215.192H336.539L336.983 205.655L333.32 205.535V195.939H329.269L329.491 186.283H325.994V176.207H321.943V168.17H321.887L318.608 168.034Z" fill="white" stroke="white" stroke-width="1.77778"/>
</svg>
