<svg xmlns="http://www.w3.org/2000/svg" xmlns:xlink="http://www.w3.org/1999/xlink" width="640" height="480" fill="none" xmlns:v="https://vecta.io/nano"><style><![CDATA[.B{stroke-width:.768}.C{fill:#fff}.D{stroke:#000}.E{stroke:#9e7800}.F{fill:#ccc}.G{stroke-width:.384}.H{stroke:#806600}.I{fill:#eace24}.J{fill:#806600}.K{stroke:#221b0f}.L{fill:#ff8080}.M{fill:#ba0028}.N{fill:#ff083c}.O{fill:#ce0f25}.P{stroke:#520}.Q{fill:#faf8f0}.R{fill:#f6e4be}.S{stroke-width:1.536}.T{fill:#5e520e}.U{stroke-miterlimit:10}.V{stroke-linejoin:round}.W{fill:#cf1e45}]]></style><g clip-path="url(#A)"><path d="M-40 480H680V0H-40V480Z" class="C"/><use xlink:href="#B" class="O"/><use xlink:href="#B" class="B K"/><use xlink:href="#C" class="Q"/><use xlink:href="#C" class="B K"/><path d="M498.052 332.213c-19.808 12.81-46.561 13.748-69.931 15.87l-14.879 15.126 13.64 20.088s15.194-4.984 23.061-6.201c5.561-.857 11.808-.088 17.358-.99 4.752-.774 8.974-.351 12.152-3.969 3.694-4.208 3.505-11.861 5.455-17.111 1.244-3.345 3.233-6.11 5.821-10.077 4.148-6.361 7.323-12.736 7.323-12.736z" class="R"/><use xlink:href="#D" class="O"/><use xlink:href="#D" class="B K"/><use xlink:href="#E" class="O"/><use xlink:href="#E" class="B K"/><use xlink:href="#F" class="Q"/><use xlink:href="#F" class="B K"/><path d="M141.881 332.213c19.807 12.81 46.56 13.748 69.929 15.87l14.878 15.126-13.639 20.088s-15.195-4.984-23.062-6.201c-5.56-.857-11.804-.088-17.358-.99-4.752-.774-8.975-.351-12.15-3.969-3.694-4.208-3.505-11.861-5.456-17.111-1.242-3.345-3.231-6.11-5.821-10.077-4.146-6.361-7.321-12.736-7.321-12.736z" class="R"/><use xlink:href="#G" class="O"/><use xlink:href="#G" class="B K"/><use xlink:href="#H" class="Q"/><use xlink:href="#H" class="B K"/><path d="M449.533 411.196s2.687-2.681 3.183-4.952c1.238-5.671-1.636-11.524-1.768-17.328-.143-6.258 1.062-18.742 1.062-18.742-15.503 14.802-58.234 52.234-132.046 52.234-71.731 0-116.543-37.432-132.046-52.234 0 0 1.202 12.484 1.061 18.742-.131 5.803-3.007 11.657-1.767 17.328.495 2.272 3.182 4.953 3.182 4.953 40.644 26.108 84.066 42.082 129.57 42.082s88.926-15.974 129.569-42.083z" class="R"/><g fill="#000"><path d="M240.968 422.794c1.407-4.037 5.957-8.304 13.21-5.779 6.021 2.098 8.577 6.826 6.693 12.234s-7.243 8.333-13.383 6.195c-6.94-2.417-7.976-8.471-6.52-12.65zm16.213 6.148c1.843-5.288-.133-9.655-4.099-11.036-2.78-.969-6.475-.562-8.524 5.318-1.71 4.911-.287 9.776 4.356 11.39 1.693.592 5.89 1.154 8.267-5.672zm8.587-.193l1.187-5.166c.149-.838.043-1.275-.738-1.642-.189-.097-.605-.223-.953-.307-.274-.065-.412-.148-.372-.321s.227-.176.601-.084l3.617.944 3.081.659c.374.09.537.182.496.35s-.203.185-.452.123c-.273-.063-.428-.076-.738-.098-.703-.04-1.002.325-1.255 1.164-.236.765-.4 1.447-1.287 5.142l-.817 3.403c-.845 3.525-.479 5.18.508 6.447.905 1.167 2.027 1.54 2.873 1.743 1.097.262 2.522.245 3.752-.491 1.69-1.007 2.29-3.177 2.89-5.681l.73-3.039 1.187-5.166c.148-.839.043-1.276-.739-1.642-.188-.096-.606-.223-.878-.288s-.413-.152-.372-.321.227-.177.576-.092l2.846.76 2.857.606c.348.084.51.174.47.344s-.203.185-.501.112c-.274-.066-.429-.077-.741-.1-.7-.039-.999.325-1.253 1.164-.236.767-.399 1.447-1.286 5.142l-.625 2.602c-.646 2.7-1.609 5.502-4.121 6.751-2.123 1.059-3.981.896-5.599.509-1.32-.317-3.694-.963-5.125-3.005-1.002-1.422-1.517-3.449-.671-6.974l.852-3.548zm22.267 10.18c-.127-.019-.184.024-.257.165l-1.855 3.194c-.342.583-.553 1.159-.596 1.457-.065.445.117.799.903.913l.38.053c.304.043.373.104.353.253-.029.198-.188.226-.466.185l-2.677-.459-3.001-.355c-.33-.047-.475-.117-.446-.316.022-.149.129-.184.333-.155.227.034.587.061.792.064 1.189.019 1.79-.753 2.474-1.918l8.563-14.431c.407-.675.599-.925.851-.888.228.032.348.277.521.883.412 1.449 3.047 11.929 4.13 15.924.644 2.366 1.329 2.817 1.843 3.017.369.129.746.208 1.051.251.203.029.326.073.301.246-.028.198-.264.215-1.202.079l-4.784-.737c-.452-.088-.756-.132-.731-.306.021-.148.13-.184.387-.172.185-.024.394-.222.31-.536l-1.296-5.391c-.033-.13-.102-.192-.229-.208l-5.652-.812zm5.347-.497c.127.019.164-.05.147-.13l-1.407-6.415c-.011-.103-.017-.231-.094-.242s-.144.106-.184.203l-3.202 5.729c-.039.094-.026.173.076.188l4.664.667zm13.254 5.699c-.02 1.951.29 2.612.795 2.807.43.164.915.207 1.324.221.281.012.434.068.428.216-.008.199-.239.242-.597.23l-3.171-.189c-.23-.008-1.435.022-2.765-.026-.334-.011-.563-.044-.554-.269.005-.15.161-.196.416-.186.333.013.794.004 1.156-.083.673-.177.801-.897.906-3.069l.761-14.708c.018-.499.107-.846.362-.837.281.011.502.343.919.807.295.339 4.04 4.474 7.645 8.232 1.679 1.763 5.004 5.484 5.424 5.901l.129.003.148-11.227c.03-1.524-.184-2.008-.788-2.28-.379-.162-.992-.186-1.349-.199-.308-.01-.408-.088-.403-.239.008-.2.29-.215.674-.2 1.33.049 2.557.169 3.092.188.282.011 1.258-.03 2.511.013.334.011.59.046.581.246-.005.149-.162.22-.468.208-.257-.009-.462-.017-.772.048-.724.174-.946.692-1.024 2.09l-.85 15.754c-.02.55-.128.772-.36.763-.281-.01-.579-.296-.85-.582-1.559-1.557-4.715-4.948-7.282-7.616-2.693-2.799-5.422-5.949-5.866-6.441l-.077-.002-.095 10.426zm24.446-2.867c-.13.01-.176.062-.216.217l-1.13 3.516c-.21.642-.294 1.249-.271 1.55.031.449.285.756 1.078.697l.383-.027c.304-.021.386.021.396.172.015.199-.134.26-.415.28l-2.713.124-3.008.293c-.331.025-.488-.014-.504-.215-.01-.149.088-.206.293-.222a7.64 7.64 0 0 0 .787-.106c1.164-.236 1.587-1.118 2.008-2.403l5.284-15.927c.254-.746.387-1.031.642-1.05.231-.017.4.197.698.753.711 1.326 5.525 11.002 7.435 14.673 1.136 2.174 1.901 2.469 2.446 2.556.388.046.773.044 1.08.022.205-.016.334-.001.347.174.014.2-.212.266-1.159.336l-4.829.3c-.461.01-.77.031-.781-.142-.011-.15.088-.207.341-.252.175-.062.338-.3.188-.59l-2.417-4.988c-.061-.122-.141-.165-.268-.157l-5.695.416zm5.119-1.625c.127-.011.146-.087.117-.16l-2.746-5.967c-.033-.098-.069-.222-.145-.216s-.119.134-.135.235l-1.906 6.281c-.018.103.014.176.115.168l4.7-.341zm15.115-1.412c.5 3.16.768 4.864 1.368 5.225.488.304 1.173.373 3.145.062 1.341-.21 2.325-.391 2.853-1.156.252-.37.447-1.11.423-1.587-.009-.223.018-.382.222-.412.175-.03.219.091.266.386.043.273.158 2.153.068 2.903-.066.566-.173.71-1.489.917l-4.286.6-3.098.41-1.438.252-1.738.324c-.329.052-.518.004-.546-.167-.018-.124.07-.214.375-.262.379-.06.675-.156.896-.242.49-.178.53-.743.519-1.473-.038-1.059-.344-3.009-.701-5.281l-.684-4.348-.873-5.228c-.181-.831-.446-1.195-1.309-1.235-.211-.02-.518.004-.847.057-.279.041-.437.017-.465-.155s.142-.249.522-.311l3.477-.47 3.43-.616c.354-.056.539-.034.565.139s-.116.247-.419.295a6.63 6.63 0 0 0-.976.23c-.664.229-.799.682-.714 1.554.074.799.182 1.491.772 5.246l.682 4.343zm14.1-1.759c-.123.031-.16.092-.177.249l-.536 3.655c-.102.668-.085 1.28-.014 1.571.105.438.406.699 1.178.513l.373-.09c.299-.074.386-.042.42.103.047.195-.091.279-.364.346l-2.656.567-2.92.783c-.323.079-.485.066-.531-.128-.035-.145.053-.218.251-.266.224-.053.568-.162.76-.235 1.11-.423 1.383-1.364 1.586-2.7l2.596-16.577c.128-.775.212-1.082.461-1.141.224-.053.426.128.81.627.922 1.192 7.259 9.946 9.746 13.254 1.477 1.958 2.28 2.124 2.834 2.119a5.76 5.76 0 0 0 1.068-.157c.199-.047.33-.054.371.116.046.195-.165.298-1.086.52l-4.716 1.092c-.454.083-.753.155-.794-.015-.037-.145.053-.219.295-.303.163-.092.284-.353.089-.614l-3.205-4.523c-.079-.108-.166-.14-.289-.11l-5.55 1.344zm4.784-2.444c.124-.03.131-.108.089-.175l-3.689-5.434c-.047-.091-.103-.207-.177-.189s-.096.152-.098.254l-.845 6.506c-.003.103.041.171.14.146l4.58-1.108zm8.362-3.925c-1.382-4.044-.428-10.208 6.842-12.692 6.034-2.059 10.961.088 12.813 5.506s-.565 11.025-6.72 13.126c-6.955 2.377-11.505-1.751-12.935-5.94zm16.56-5.15c-1.811-5.3-6.059-7.522-10.033-6.164-2.787.951-5.445 3.549-3.433 9.44 1.68 4.922 5.8 7.874 10.453 6.285 1.696-.579 5.35-2.723 3.013-9.561z"/></g><path d="M421.561 103.367H218.443v14.382h203.118v-14.382z" fill="#666"/><path d="M421.561 103.367H218.443v14.382h203.118v-14.382z" class="B P"/><path d="M218.443 117.749l-22.99-54.1-3.864 1.174-8.441-19.334 15.504-4.58 3.511 9.076 7.485-2.219-3.204-8.897 15.79-3.642 2.807 9.27L232.814 43l-2.69-9.36 15.836-2.761 2.168 9.43 10.476-1.484.911 4.766 3.888-.492-.799-4.742 8.026-1.044.818 4.824 3.925-.395-.591-4.862 7.974-.728.669 4.858 7.756-.595-1.413-14.385 16.066-.821.525 9.465 7.662-.117-.138-9.555 16.132.001-.248 9.671 7.799.16.568-9.625 16.029.704-1.464 14.59 7.753.537.673-4.808 7.949.73-.631 4.816 4.008.392.725-4.697 7.999.856-.768 4.8 3.961.55.958-4.796 10.358 1.532 2.196-9.507 15.814 2.76-2.453 9.535 7.465 1.465 2.893-9.386 15.762 3.57-3.28 9.261 7.51 2.051 3.629-9.267 15.562 4.438-8.44 19.335-6.661-2.194-23.411 55.275c-64.657-18.603-141.392-18.68-203.827-.001z" class="H I S"/><path d="M315.229 72.995V55.849c0-6.858 12.338-6.858 12.338 0v17.146" class="T"/><path d="M315.229 72.995V55.849c0-6.858 12.338-6.858 12.338 0v17.146" class="B P"/><path d="M225.152 84.649l-5.322-16.562c-2.129-6.624 9.788-9.287 11.918-2.662l5.322 16.562" class="T"/><path d="M225.152 84.649l-5.322-16.562c-2.129-6.624 9.788-9.287 11.918-2.662l5.322 16.562" class="B P"/><path d="M404.721 81.355l5.321-16.561c2.131-6.625 14.047-3.963 11.919 2.661l-5.323 16.562" class="T"/><g class="B"><path d="M404.721 81.355l5.321-16.561c2.131-6.625 14.047-3.963 11.919 2.661l-5.323 16.562" class="P"/><path d="M355.501 91.877l-.703 5.959m-139.002 13.506c67.688-19.842 141.411-20.138 209.325-.838m-211.78-4.598c69.205-20.318 144.596-20.632 214.044-.894m-216.232-4.62c70.726-20.738 147.764-21.024 218.708-.811m-220.944-4.235c72.025-21.139 150.482-21.466 222.758-.931m-49.308.62l-1.236 5.816m36.679 1.747l-2.001 5.435m-12.957-9.075l-1.693 5.522m-19.662-15.393l-1.172 5.735m13.496-3.66l-1.513 5.503m15.564-2.653l-1.688 5.495m17.466-1.583l-2.089 5.444m-17.005-15.603l-1.505 5.019m19.513-.937l-1.948 5.253m-4.87-6.857l-1.741 5.065m-25.359-10.399l-1.249 5.215m-8.016-6.964l-1.125 5.48m-31.361 2.706l-.529 5.764m21.188-3.945l-.949 5.626M342.3 85.147l-.403 5.824m11.004-5.233l-.618 5.747m18.613-3.69l-.986 5.552m-2.942-11.643l-.838 5.242m-9.827-6.202l-.656 5.386m-15.779-6.758l-.339 5.376M240.344 99.17l1.649 5.338m93.057-13.861l-.274 5.945m-105.127 5.066l1.924 5.45m61.026-15.574l.607 5.829m13.967-6.471l.305 5.649m-32.109-3.421l.995 5.772m40.623-8.244l.104 5.737m-62.711-.071l1.383 5.691m-20.869-7.755l1.805 5.58m11.994-8.425l1.489 5.521m7.114-7.034l1.305 5.704m11.222-7.596l1.065 5.63m16.192-7.333l.725 5.774m12.834-6.801l.452 5.913m11.627-6.324l.189 5.74m16.821-6.093l-.161 5.738m-107.814 7.271l2.1 5.564M326.579 79.14l-.09 5.518m-12.149-5.371l.142 5.299m-11.33-4.862l.351 5.305m-21.156-3.702l.753 5.376m-17.012-3.542l1.03 5.176m-12.394-3.504l1.271 5.272m-14.615-2.809l1.48 5.066m-21.355-.806l1.996 5.396M387.397 78.2l6.172-28.651M206.581 89.421c73.669-21.591 153.91-21.881 227.8-.826m-85.153-36.488c14.317.894 28.671 2.474 42.772 4.733m-37.443-16.209l-.529 4.449c-21.12-1.467-42.606-1.474-63.727-.01l-.566-4.543m-38.473 16.326c13.962-2.239 28.492-3.814 42.668-4.714m-44.477-2.462l6.579 28.587m40.003-4.448l-2.794-28.94m56.377-.058l-1.55 29.018m-97.994-33.8l2.005 9.304c-20.717 3.195-40.686 9.495-60.491 15.485m200.44-24.952l-1.941 9.213c21.243 3.207 41.965 9.442 62.256 15.584" class="H"/></g><path d="M218.442 117.748c-.54 34.631-.508 69.267 0 103.898.489 33.365 2.125 59.402 16.816 79.762 17.696 24.523 47.176 42.22 85.099 59.609 37.92-17.389 67.402-35.086 85.099-59.609 14.688-20.36 16.326-46.398 16.814-79.762V117.748H218.442z" fill="#1353b4" stroke="#540" class="S"/><path d="M419.431 264.961c.068-8.659 1.869-12.771 1.87-21.428.897-17.377 1.242-34.634.971-51.951H218.444c-.272 17.317.072 34.419.969 51.951.003 8.657 1.856 12.77 1.921 21.428h198.097z" class="O"/><path d="M218.154 191.127h204.41m-201.36 73.832h198.229" stroke="#540" class="S"/><path d="M294.957 238.891l24.751-10.084-10.084 24.752 11.001-7.333 11.002 7.333-10.085-24.752 24.752 10.084-7.334-11 7.334-11.001-24.752 10.084 10.085-24.751-11.002 7.333-11.001-7.333 10.084 24.751-24.751-10.084 7.334 11.001-7.334 11z" stroke-width=".618" class="C D"/><use xlink:href="#I" class="I"/><use xlink:href="#I" class="B H"/><path d="M185.745 352.674l-12.952-9.947 15.392 9.196" class="I"/><g class="B"><path d="M185.745 352.674l-12.952-9.947 15.392 9.196" class="H"/><use xlink:href="#J" class="D I"/><use xlink:href="#J" class="H"/></g><use xlink:href="#K" class="I"/><g class="B"><use xlink:href="#K" class="H"/><g class="D"><path d="M170.736 148.844l43.67 40.086.93 2.919m-35.045-28.14c4.381 7.699 12.478 10.486 12.478 10.486"/></g></g><use xlink:href="#L" class="C"/><use xlink:href="#L" class="B D"/><path d="M167.344 119.596c-5.069 4.129-9.198 17.645-9.198 17.645z" class="C"/><path d="M167.344 119.596c-5.069 4.129-9.198 17.645-9.198 17.645" class="B D"/><use xlink:href="#M" class="C"/><use xlink:href="#M" class="B D"/><path d="M151.387 126.918c-2.629 6.758.188 15.955.188 15.955z" class="C"/><path d="M151.387 126.918c-2.629 6.758.188 15.955.188 15.955" class="B D"/><use xlink:href="#N" class="C"/><use xlink:href="#N" class="B D"/><path d="M142.942 137.43c-.564 7.134 5.068 15.956 5.068 15.956z" class="C"/><path d="M142.942 137.43c-.564 7.134 5.068 15.956 5.068 15.956" class="B D"/><use xlink:href="#O" class="C"/><use xlink:href="#O" class="B D"/><path d="M134.683 145.127c-3.191 6.382 11.262 25.342 11.262 25.342z" class="C"/><g class="B D"><path d="M134.683 145.127c-3.191 6.382 11.262 25.342 11.262 25.342"/><use xlink:href="#P" class="C"/><use xlink:href="#P"/></g><use xlink:href="#Q" class="C"/><use xlink:href="#Q" class="B D"/><use xlink:href="#R" class="C"/><g class="B D"><use xlink:href="#R"/><path d="M137.296 254.416s-5.708 7.566-1.859 6.371"/></g><use xlink:href="#S" class="C"/><use xlink:href="#S" class="B D"/><path d="M143.693 233.727c2.437 0-4.874 4.881-7.509 11.638z" class="C"/><path d="M143.693 233.727c2.437 0-4.874 4.881-7.509 11.638" class="B D"/><use xlink:href="#T" class="C"/><use xlink:href="#T" class="B D"/><use xlink:href="#U" class="C"/><use xlink:href="#U" class="B D"/><path d="M125.11 160.896s-7.132-5.445-10.887-12.765z" class="C"/><path d="M125.11 160.896s-7.132-5.445-10.887-12.765" class="B D"/><use xlink:href="#V" class="C"/><use xlink:href="#V" class="B D"/><path d="M123.232 173.285s-9.385-6.945-16.894-18.396z" class="C"/><path d="M123.232 173.285s-9.385-6.945-16.894-18.396" class="B D"/><use xlink:href="#W" class="C"/><use xlink:href="#W" class="B D"/><path d="M122.105 183.61s-12.014-4.317-19.523-15.768z" class="C"/><path d="M122.105 183.61s-12.014-4.317-19.523-15.768" class="B D"/><use xlink:href="#X" class="C"/><use xlink:href="#X" class="B D"/><path d="M123.796 194.12s-15.956-3.003-24.591-11.827z" class="C"/><path d="M123.796 194.12s-15.956-3.003-24.591-11.827" class="B D"/><use xlink:href="#Y" class="C"/><use xlink:href="#Y" class="B D"/><path d="M126.237 202.382s-18.584.376-26.467-6.007z" class="C"/><path d="M126.237 202.382s-18.584.376-26.467-6.007" class="B D"/><use xlink:href="#Z" class="C"/><use xlink:href="#Z" class="B D"/><path d="M129.053 214.957s-12.389.376-20.274-3.941z" class="C"/><path d="M129.053 214.957s-12.389.376-20.274-3.941" class="B D"/><use xlink:href="#a" class="C"/><use xlink:href="#a" class="B D"/><path d="M138.063 231.287c2.435 0-12.76 4.694-15.393 11.452z" class="C"/><path d="M138.063 231.287c2.435 0-12.76 4.694-15.393 11.452" class="B D"/><use xlink:href="#b" class="C"/><use xlink:href="#b" class="B D"/><path d="M127.549 226.971c2.436 0-9.944 4.317-12.576 11.077z" class="C"/><path d="M127.549 226.971c2.436 0-9.944 4.317-12.576 11.077" class="B D"/><use xlink:href="#c" class="C"/><use xlink:href="#c" class="B D"/><path d="M135.245 225.467s-18.959.189-27.595-3.752z" class="C"/><path d="M135.245 225.467s-18.959.189-27.595-3.752" class="B D"/><use xlink:href="#d" class="C"/><g class="B D"><use xlink:href="#d"/><path d="M129.793 171.861s2.065 5.444 4.505 5.444m-8.247-18.285s2.627 9.199 5.068 9.199m-7.322-2.065s.751 6.007 3.19 6.007m-5.819 1.691s2.065 5.443 4.504 5.443m-5.818 2.441s2.253 4.881 4.693 4.881m-4.506 3.004s3.755 6.007 6.194 6.007m-5.44 2.063s3.941 3.38 6.382 3.38m-5.447 3.003s3.942 3.379 6.383 3.379m-5.445 3.563s5.818 2.815 8.259 2.815m-5.63 3.757l9.01.564m-3.653 4.826l7.948-.234m-4.76 5.543s4.712-1.297 7.683-.234m-3.304 3.285s4.711-1.297 7.683-.233m-4.232 3.817s4.579-.63 7.815-1.959m-3.171 4.349s1.923.562 5.161-.763m.414 3.152s1.659-.1 4.896-1.426m18.451-92.492c-3.848-7.3-7.832-6.504-7.832-6.504-1.99 0-2.654 1.327-4.911 1.327-2.787 0-2.123-2.92-2.123-2.92"/></g><path d="M169.001 139.408c-.796 3.452-3.331 4.121-3.331 4.121s.55 3.294 2.668 3.445c3.89.696 5.16-2.803 3.318-5.841-.662-.796-2.655-1.725-2.655-1.725z" fill="#000"/><path d="M171.414 143.392c.126.425-.518 1.021-1.44 1.329s-1.771.215-1.897-.212.518-1.023 1.439-1.332 1.771-.213 1.898.213v.002z" class="C"/><path d="M118.253 286.483c-1.22 1.971 4.412 2.494 5.914.187 0 3.192 4.35 3.313 5.913 1.784.656 2.065 3.696 1.538 5.631-.376.329.891 3.083 2.801 4.101 2.435 1.989-.718 9.761-11.716 11.45-12.653m-40.912 23.942s8.926-8.693 14.765-13.338m-11.713 16.524s11.742-10.852 17.583-15.498m-6.3 13.374s7.8-8.036 13.64-12.681m-21.405-3.493s8.721-10.395 14.562-15.04m-7.756 15.317s7.331-8.412 15.705-14.37m-9.021 15.625s3.455-6.627 13.988-14.743m-8.638 14.65s4.009-6.95 11.257-12.159m-11.714 13.09c-5.974 6.105-10.752 10.221-10.752 10.221m2.126-9.69c-5.975 6.106-12.079 11.017-12.079 11.017m6.237-12.743c-5.973 6.106-7.565 6.638-7.565 6.638m13.43-27.535c-1.221 1.971 1.539 6.744 7.422 3.906-1.859 4.917.899 3.579 4.719 1.785-1.069 4.187 3.696 1.536 5.63-.376.328.891.428 3.068 2.242 3.233 2.106.191 4.318-5.876 6.009-6.813m-18.794 2.26l10.667-9.777m-16.343 10.291l5.193-7.902m5.278 9.019l6.403-7.028m-.852 6.879l3.374-3.693m-13.672 4.777c-1.328 1.461-4.38 3.717-4.38 3.717m10.087-2.255c-2.92 2.256-5.441 4.646-5.441 4.646m14.733-2.391c-5.973 6.106-4.645 4.513-4.645 4.513m1.459-7.035c-2.921 2.257-4.646 3.982-4.646 3.982m10.619-18.848c-8.495 10.619 3.717 2.123 3.717 2.123m-14.663 2.937s-4.981.913.726-5.989m8.893-5.044l-1.592 2.522m-.271-72.421c-1.501 4.316 2.629 8.635 2.629 8.635m-5.82-6.195c-1.502 4.317 5.442 11.45 5.442 11.45m-6.757-4.13c-1.501 4.319 6.194 7.884 6.194 7.884m-2.814 3.004c.375 3.191 6.006 2.44 6.006 2.44m-14.041-37.468s.48 3.636 2.258 8.628c-2.788 2.787-3.318 7.034-3.318 7.034m-8.558-13.411s2.065 5.444 4.505 5.444m-5.699 1.327s2.065 5.444 4.505 5.444m-6.762.263s2.596 3.586 5.036 3.586m-4.107 3.582s2.597 3.586 5.037 3.586m-3.178 3.979s2.861.665 5.301.665m-3.576 4.645s.605.134 3.045.134m-.125-37.565s-.325 3.056 2.117 3.056m.728 45.625s3.05-.356 2.513-2.735m-7.026-1.511s5.307-1.551 4.772-3.93m6.378 14.282s.928-6.195.391-8.576m6.909 13.488s-.931-8.187-2.794-9.24m10.891 11.23c-1.99-6.902-4.647-10.045-6.511-10.7m14.343 10.303c-1.991-6.903-7.303-9.514-9.167-10.17m18.457 10.433c-1.99-6.901-7.3-9.513-9.165-10.167m2.666 19.363c-7.168 2.654-10.486 9.158-10.486 9.158m.847-96.662c-1.878 0-2.441 1.126-2.441 1.126m-3.754 9.949c-.797 2.256 1.712 5.357 1.314 4.693m-1.19-22.888c-1.86 0-1.993 3.584-1.993 3.584m12.081 27.476l2.654 3.451m-1.328 6.636l2.787 3.185m8.894 7.567l3.318 3.584" class="B D"/><path d="M193.737 207.627s1.577 4.358 2.703 4.732c0 0 1.279.43 2.124-.132.769-.513 0-1.593 0-1.593-1.031-1.502-4.827-3.007-4.827-3.007zm-6.716 2.186s-.26 4.626.629 5.413c0 0 1.008.899 2.005.711.909-.169.626-1.465.626-1.465-.361-1.786-3.26-4.659-3.26-4.659zm4.599 16.33s-.26 4.627.629 5.415c0 0 1.009.896 2.006.711.907-.17.625-1.466.625-1.466-.361-1.786-3.26-4.66-3.26-4.66zm11.357 4.638l-.1.231h-.253c-.153 0-.297-.067-.404-.189-.489-.554-.276-3.044-.09-4.59-.481-.629-1.593-2.191-1.447-3.028a.72.72 0 0 1 .33-.505l.243-.152.216.19c.282.251 2.767 2.482 2.941 3.706.102.708-1.074 3.498-1.436 4.337zm-25.095 13.568c-.844 0-1.589 2.55-1.033 3.601 0 0 .626 1.194 1.626 1.371.91.16 1.102-1.152 1.102-1.152.289-1.8-.002-3.82-1.695-3.82zm-5.071 37.296c-.363.631-1.814 1.512-2.101 1.681l-.226.134-.207-.162c-.517-.406-.225-1.475.866-3.178.005-.76.082-2.743.726-3.323.166-.148.361-.216.572-.194l.286.03.051.281c.069.373.649 3.661.033 4.731zm-11.92 3.472c-.209.367-.585.487-.967.487-.335 0-.675-.092-.915-.192l-.089-.052c-.629-.492-.337-2.04-.166-2.735.001-.703.062-2.791.726-3.389.165-.148.363-.216.571-.194l.268.028.064.262c.192.78 1.116 4.726.508 5.785zm9.855-18.114c-.219.38-.594.49-.953.49a2.64 2.64 0 0 1-.928-.195l-.09-.052c-.645-.505-.323-2.113-.155-2.782.136-.389.811-2.154 1.944-2.034l.295.031.045.294c.047.322.454 3.182-.158 4.248zm15.395-13.362s-1.87 4.239-1.316 5.288c0 0 .628 1.197 1.628 1.372.91.161 1.1-1.152 1.1-1.152.292-1.799-1.412-5.508-1.412-5.508zm-5.449 10.95c-2.78.917-3.364 4.213-3.158 5.38 0 0 .23 1.33 1.126 1.805.818.434 1.402-.757 1.402-.757.829-1.623 2.6-4.926.63-6.428zm-15.015-16.372c-1.875 1.264-1.881 2.368-1.894 3.555 0 0-.016 1.349.778 1.981.725.574 3.206-.49 3.206-.49 1.112-1.443-1.997-1.48-2.09-5.046zm20.084-18.114c-1.874 1.264-1.88 1.053-1.892 3.553 0 0 .639 2.007 1.435 2.638.722.575 1.516-1.239 1.516-1.239 1.113-1.442.537-4.484-1.059-4.952zm13.803 10.021c-.845 0-1.59 2.55-1.035 3.599 0 0 .629 1.195 1.628 1.372.91.161 1.101-1.151 1.101-1.151.289-1.8-.002-3.82-1.694-3.82zm-5.82 7.227c-1.207 3.901-2.621 5.084-2.067 6.134l2.378.526c.91.162 1.1-1.15 1.1-1.15.292-1.8-1.13-1.287-1.411-5.51zm-32.851 45.445c-.845 0-1.59 2.549-1.035 3.599 0 0 .627 1.194 1.628 1.371.91.16 1.099-1.151 1.099-1.151.292-1.798 0-3.819-1.692-3.819z" fill="#000"/><use xlink:href="#e" class="I"/><use xlink:href="#e" class="B H"/><path d="M455.024 352.674l12.953-9.947-15.393 9.196" class="I"/><g class="B"><path d="M455.024 352.674l12.953-9.947-15.393 9.196" class="H"/><use xlink:href="#f" class="D I"/><use xlink:href="#f" class="H"/></g><use xlink:href="#g" class="I"/><g class="B"><use xlink:href="#g" class="H"/><g class="D"><path d="M470.033 148.844l-43.669 40.086-.93 2.919m35.045-28.14C456.098 171.408 448 174.195 448 174.195"/></g></g><use xlink:href="#h" class="C"/><use xlink:href="#h" class="B D"/><path d="M473.425 119.596c5.069 4.129 9.198 17.645 9.198 17.645z" class="C"/><path d="M473.425 119.596c5.069 4.129 9.198 17.645 9.198 17.645" class="B D"/><use xlink:href="#i" class="C"/><use xlink:href="#i" class="B D"/><path d="M489.382 126.918c2.629 6.758-.187 15.955-.187 15.955z" class="C"/><path d="M489.382 126.918c2.629 6.758-.187 15.955-.187 15.955" class="B D"/><use xlink:href="#j" class="C"/><use xlink:href="#j" class="B D"/><path d="M497.828 137.43c.563 7.134-5.069 15.956-5.069 15.956z" class="C"/><path d="M497.828 137.43c.563 7.134-5.069 15.956-5.069 15.956" class="B D"/><use xlink:href="#k" class="C"/><use xlink:href="#k" class="B D"/><path d="M506.087 145.127c3.191 6.382-11.263 25.342-11.263 25.342z" class="C"/><g class="B D"><path d="M506.087 145.127c3.191 6.382-11.263 25.342-11.263 25.342"/><use xlink:href="#l" class="C"/><use xlink:href="#l"/></g><use xlink:href="#m" class="C"/><use xlink:href="#m" class="B D"/><use xlink:href="#n" class="C"/><g class="B D"><use xlink:href="#n"/><path d="M503.474 254.416s5.708 7.566 1.858 6.371"/></g><use xlink:href="#o" class="C"/><use xlink:href="#o" class="B D"/><path d="M497.074 233.727c-2.436 0 4.875 4.881 7.51 11.638z" class="C"/><path d="M497.074 233.727c-2.436 0 4.875 4.881 7.51 11.638" class="B D"/><use xlink:href="#p" class="C"/><use xlink:href="#p" class="B D"/><use xlink:href="#q" class="C"/><use xlink:href="#q" class="B D"/><path d="M515.66 160.896s7.131-5.445 10.887-12.765z" class="C"/><path d="M515.66 160.896s7.131-5.445 10.887-12.765" class="B D"/><use xlink:href="#r" class="C"/><use xlink:href="#r" class="B D"/><path d="M517.538 173.285s9.385-6.945 16.894-18.396z" class="C"/><path d="M517.538 173.285s9.385-6.945 16.894-18.396" class="B D"/><use xlink:href="#s" class="C"/><use xlink:href="#s" class="B D"/><path d="M518.664 183.61s12.015-4.317 19.524-15.768z" class="C"/><path d="M518.664 183.61s12.015-4.317 19.524-15.768" class="B D"/><use xlink:href="#t" class="C"/><use xlink:href="#t" class="B D"/><path d="M516.973 194.12s15.956-3.003 24.591-11.827z" class="C"/><path d="M516.973 194.12s15.956-3.003 24.591-11.827" class="B D"/><use xlink:href="#u" class="C"/><use xlink:href="#u" class="B D"/><path d="M514.532 202.382s18.584.376 26.468-6.007z" class="C"/><path d="M514.532 202.382s18.584.376 26.468-6.007" class="B D"/><use xlink:href="#v" class="C"/><use xlink:href="#v" class="B D"/><path d="M511.717 214.957s12.388.376 20.273-3.941z" class="C"/><path d="M511.717 214.957s12.388.376 20.273-3.941" class="B D"/><use xlink:href="#w" class="C"/><use xlink:href="#w" class="B D"/><path d="M502.707 231.287c-2.436 0 12.759 4.694 15.393 11.452z" class="C"/><path d="M502.707 231.287c-2.436 0 12.759 4.694 15.393 11.452" class="B D"/><use xlink:href="#x" class="C"/><use xlink:href="#x" class="B D"/><path d="M513.22 226.971c-2.435 0 9.944 4.317 12.577 11.077z" class="C"/><path d="M513.22 226.971c-2.435 0 9.944 4.317 12.577 11.077" class="B D"/><use xlink:href="#y" class="C"/><use xlink:href="#y" class="B D"/><path d="M505.525 225.467s18.959.189 27.594-3.752z" class="C"/><path d="M505.525 225.467s18.959.189 27.594-3.752" class="B D"/><use xlink:href="#z" class="C"/><g class="B D"><use xlink:href="#z"/><path d="M510.979 171.861s-2.066 5.444-4.506 5.444m8.248-18.285s-2.628 9.199-5.068 9.199m7.322-2.065s-.751 6.007-3.191 6.007m5.82 1.691s-2.066 5.443-4.505 5.443m5.819 2.441s-2.253 4.881-4.693 4.881m4.505 3.004s-3.754 6.007-6.193 6.007m5.44 2.063s-3.942 3.38-6.383 3.38m5.447 3.003s-3.941 3.379-6.382 3.379m5.445 3.563s-5.819 2.815-8.26 2.815m5.631 3.757l-9.011.564m3.653 4.826l-7.948-.234m4.761 5.543s-4.713-1.297-7.683-.234m3.304 3.285s-4.711-1.297-7.683-.233m4.232 3.817s-4.58-.63-7.816-1.959m3.171 4.349s-1.923.562-5.16-.763m-.414 3.152s-1.659-.1-4.896-1.426m-18.452-92.492c3.849-7.3 7.832-6.504 7.832-6.504 1.99 0 2.655 1.327 4.911 1.327 2.788 0 2.124-2.92 2.124-2.92"/></g><path d="M471.768 139.408c.796 3.452 3.332 4.121 3.332 4.121s-.55 3.294-2.668 3.445c-3.89.696-5.161-2.803-3.318-5.841.662-.796 2.654-1.725 2.654-1.725z" fill="#000"/><path d="M469.356 143.392c-.126.425.518 1.021 1.44 1.329s1.771.215 1.897-.212-.519-1.023-1.44-1.332-1.771-.213-1.897.213v.002z" class="C"/><path d="M522.514 286.483c1.221 1.971-4.412 2.494-5.913.187 0 3.192-4.351 3.313-5.913 1.784-.657 2.065-3.696 1.538-5.632-.376-.328.891-3.082 2.801-4.1 2.435-1.989-.718-9.761-11.716-11.45-12.653m40.912 23.942s-8.926-8.693-14.766-13.338m11.713 16.524s-11.742-10.852-17.582-15.498m6.299 13.374s-7.799-8.036-13.639-12.681m21.405-3.493s-8.722-10.395-14.562-15.04m7.756 15.317s-7.332-8.412-15.706-14.37m9.022 15.625s-3.455-6.627-13.989-14.743m8.639 14.65s-4.009-6.95-11.257-12.159m11.714 13.09c5.973 6.105 10.752 10.221 10.752 10.221m-2.126-9.69c5.974 6.106 12.078 11.017 12.078 11.017m-6.237-12.743c5.974 6.106 7.566 6.638 7.566 6.638m-13.431-27.535c1.221 1.971-1.539 6.744-7.421 3.906 1.859 4.917-.899 3.579-4.719 1.785 1.069 4.187-3.697 1.536-5.631-.376-.327.891-.427 3.068-2.241 3.233-2.107.191-4.319-5.876-6.009-6.813m18.794 2.26l-10.667-9.777m16.342 10.291l-5.192-7.902m-5.278 9.019l-6.404-7.028m.852 6.879l-3.373-3.693m13.671 4.777c1.328 1.461 4.381 3.717 4.381 3.717m-10.088-2.255c2.921 2.256 5.441 4.646 5.441 4.646m-14.733-2.391c5.974 6.106 4.646 4.513 4.646 4.513m-1.459-7.035c2.92 2.257 4.645 3.982 4.645 3.982m-10.618-18.848c8.495 10.619-3.717 2.123-3.717 2.123m14.662 2.937s4.982.913-.725-5.989m-8.894-5.044l1.593 2.522m.27-72.421c1.502 4.316-2.628 8.635-2.628 8.635m5.819-6.195c1.503 4.317-5.442 11.45-5.442 11.45m6.758-4.13c1.501 4.319-6.195 7.884-6.195 7.884m2.815 3.004c-.376 3.191-6.006 2.44-6.006 2.44m14.04-37.468s-.479 3.636-2.257 8.628c2.788 2.787 3.318 7.034 3.318 7.034m8.558-13.411s-2.066 5.444-4.506 5.444m5.7 1.327s-2.065 5.444-4.505 5.444m6.761.263s-2.596 3.586-5.036 3.586m4.108 3.582s-2.597 3.586-5.038 3.586m3.179 3.979s-2.862.665-5.301.665m3.575 4.645s-.604.134-3.045.134m.125-37.565s.325 3.056-2.116 3.056m-.728 45.625s-3.051-.356-2.513-2.735m7.026-1.511s-5.307-1.551-4.772-3.93m-6.378 14.282s-.928-6.195-.391-8.576m-6.91 13.488s.932-8.187 2.795-9.24m-10.891 11.23c1.99-6.902 4.647-10.045 6.511-10.7m-14.343 10.303c1.99-6.903 7.303-9.514 9.167-10.17m-18.458 10.433c1.991-6.901 7.301-9.513 9.166-10.167m-2.666 19.363c7.168 2.654 10.485 9.158 10.485 9.158m-.846-96.662c1.878 0 2.441 1.126 2.441 1.126m3.754 9.949c.796 2.256-1.713 5.357-1.314 4.693m1.19-22.888c1.859 0 1.992 3.584 1.992 3.584m-12.08 27.476l-2.655 3.451m1.328 6.636l-2.787 3.185m-8.893 7.567l-3.319 3.584" class="B D"/><path d="M447.033 207.627s-1.578 4.358-2.703 4.732c0 0-1.28.43-2.124-.132-.769-.513 0-1.593 0-1.593 1.03-1.502 4.827-3.007 4.827-3.007zm6.716 2.186s.26 4.626-.629 5.413c0 0-1.009.899-2.006.711-.909-.169-.625-1.465-.625-1.465.36-1.786 3.26-4.659 3.26-4.659zm-4.599 16.33s.259 4.627-.63 5.415c0 0-1.008.896-2.005.711-.907-.17-.625-1.466-.625-1.466.361-1.786 3.26-4.66 3.26-4.66zm-11.357 4.638l.1.231h.252c.154 0 .297-.067.405-.189.488-.554.276-3.044.089-4.59.482-.629 1.594-2.191 1.448-3.028-.039-.22-.153-.394-.331-.505l-.243-.152-.215.19c-.283.251-2.767 2.482-2.941 3.706-.103.708 1.073 3.498 1.436 4.337zm25.094 13.568c.844 0 1.59 2.55 1.034 3.601 0 0-.627 1.194-1.627 1.371-.91.16-1.101-1.152-1.101-1.152-.29-1.8.001-3.82 1.694-3.82zm5.072 37.296c.362.631 1.814 1.512 2.1 1.681l.226.134.208-.162c.516-.406.225-1.475-.867-3.178-.004-.76-.081-2.743-.725-3.323-.166-.148-.361-.216-.573-.194l-.285.03-.052.281c-.068.373-.649 3.661-.032 4.731zm11.919 3.472c.21.367.586.487.968.487a2.5 2.5 0 0 0 .915-.192l.089-.052c.629-.492.336-2.04.166-2.735-.001-.703-.063-2.791-.726-3.389-.165-.148-.363-.216-.571-.194l-.269.028-.063.262c-.192.78-1.117 4.726-.509 5.785zm-9.855-18.114c.219.38.595.49.953.49.437 0 .851-.162.928-.195l.091-.052c.644-.505.322-2.113.154-2.782-.135-.389-.81-2.154-1.944-2.034l-.295.031-.044.294c-.048.322-.455 3.182.157 4.248zm-15.395-13.362s1.87 4.239 1.316 5.288c0 0-.627 1.197-1.627 1.372-.91.161-1.101-1.152-1.101-1.152-.291-1.799 1.412-5.508 1.412-5.508zm5.45 10.95c2.78.917 3.364 4.213 3.158 5.38 0 0-.231 1.33-1.127 1.805-.817.434-1.401-.757-1.401-.757-.83-1.623-2.601-4.926-.63-6.428zm15.015-16.372c1.875 1.264 1.881 2.368 1.893 3.555 0 0 .017 1.349-.778 1.981-.724.574-3.206-.49-3.206-.49-1.112-1.443 1.997-1.48 2.091-5.046zm-20.085-18.114c1.875 1.264 1.88 1.053 1.893 3.553 0 0-.639 2.007-1.436 2.638-.722.575-1.516-1.239-1.516-1.239-1.113-1.442-.537-4.484 1.059-4.952zm-13.802 10.021c.844 0 1.589 2.55 1.034 3.599 0 0-.628 1.195-1.627 1.372-.91.161-1.102-1.151-1.102-1.151-.288-1.8.003-3.82 1.695-3.82zm5.82 7.227c1.206 3.901 2.621 5.084 2.066 6.134l-2.377.526c-.911.162-1.1-1.15-1.1-1.15-.293-1.8 1.13-1.287 1.411-5.51zm32.851 45.445c.845 0 1.59 2.549 1.034 3.599 0 0-.626 1.194-1.627 1.371-.91.16-1.1-1.151-1.1-1.151-.292-1.798.001-3.819 1.693-3.819z" fill="#000"/><g class="B H I"><path d="M315.255 165.023c.237-2.29.11-6.608-1.057-8.57-.395-.662-1.361-1.436-2.116-1.403-.742.033-1.765.258-2.114.934-.32.621-.529 1.952-.453 2.65.105.97 1.207 2.96 1.207 2.96s-3.949-.818-5.287-1.87c-1.322-1.041-2.75-3.014-3.172-4.675-.145-.569-.709-2.411.004-4.621.414-1.283 1.658-2.999 2.623-3.854 2.516-2.234 7.4-1.585 8.401-1.03 1.32.735 2.931 2.297 3.473 3.74.422 1.121 1.297 4.428 1.511 5.61l.754 5.765c.132 1.678.496 3.184.151 4.831-.185.887-.415 2.921-.919 4.261-.505 1.347-1.282 2-1.951 2.595-1.367 1.218-5.739 1.87-5.739 1.87s2.402-3.128 3.02-4.519c.737-1.653 1.478-2.866 1.664-4.674zm10.71 0c-.236-2.29-.11-6.608 1.057-8.57.395-.662 1.363-1.436 2.116-1.403.742.033 1.763.258 2.114.934.322.621.53 1.952.453 2.65-.106.97-1.208 2.96-1.208 2.96s3.95-.818 5.288-1.87c1.322-1.041 2.749-3.014 3.171-4.675.145-.569.71-2.411-.004-4.621-.414-1.283-1.659-2.999-2.622-3.854-2.516-2.234-7.402-1.585-8.402-1.03-1.321.735-2.932 2.297-3.474 3.74-.422 1.121-1.296 4.428-1.511 5.61l-.755 5.765c-.132 1.678-.496 3.184-.151 4.831.187.887.418 2.921.919 4.261.504 1.347 1.283 2 1.952 2.595 1.366 1.218 5.74 1.87 5.74 1.87s-2.403-3.128-3.021-4.519c-.734-1.653-1.474-2.866-1.662-4.674z"/><path d="M320.585 182.03s3.528-2.986 4.113-6.364c.525-3.04-1.814-6.598-1.992-8.03-.707-5.724.794-13.35.929-13.973.539-2.476 1.215-3.536 1.576-4.347.26-.584 1.001-1.744 1.742-2.869.426-.646 1.373-1.847 1.856-3.071.511-1.295.545-2.615.553-3.318.013-1.199-.208-2.22-.516-3.196-.293-.929-1.249-2.447-2.634-3.32l-3.16-1.998c-1.516-.99-2.45-4.245-2.469-4.245s-.952 3.255-2.469 4.245l-3.105 1.998c-1.384.872-2.341 2.391-2.632 3.32-.309.976-.529 1.997-.515 3.196.007.703.041 2.023.554 3.318.482 1.223 1.429 2.424 1.855 3.071.742 1.125 1.482 2.285 1.742 2.869.361.811 1.038 1.871 1.575 4.347.135.623 1.638 8.249.929 13.973-.178 1.432-2.572 4.99-2.046 8.03.585 3.378 4.114 6.364 4.114 6.364z"/><path d="M328.511 163.665l-1.699-2.427h-12.4l-1.703 2.427 1.703 2.415h12.401l1.698-2.415zm-80.024 1.358c.238-2.29.111-6.608-1.057-8.57-.394-.662-1.36-1.436-2.115-1.403-.742.033-1.765.258-2.115.934-.32.621-.529 1.952-.453 2.65.105.97 1.207 2.96 1.207 2.96s-3.949-.818-5.286-1.87c-1.322-1.041-2.751-3.014-3.172-4.675-.145-.569-.71-2.411.004-4.621.414-1.283 1.658-2.999 2.622-3.854 2.516-2.234 7.401-1.585 8.401-1.03 1.321.735 2.931 2.297 3.473 3.74.422 1.121 1.297 4.428 1.511 5.61l.755 5.765c.131 1.678.495 3.184.15 4.831-.185.887-.415 2.921-.918 4.261-.505 1.347-1.283 2-1.952 2.595-1.367 1.218-5.739 1.87-5.739 1.87s2.402-3.128 3.021-4.519c.736-1.653 1.477-2.866 1.663-4.674zm10.711 0c-.237-2.29-.111-6.608 1.057-8.57.394-.662 1.362-1.436 2.115-1.403.742.033 1.764.258 2.115.934.322.621.53 1.952.453 2.65-.107.97-1.209 2.96-1.209 2.96s3.951-.818 5.289-1.87c1.321-1.041 2.748-3.014 3.171-4.675.145-.569.709-2.411-.004-4.621-.414-1.283-1.66-2.999-2.622-3.854-2.517-2.234-7.403-1.585-8.402-1.03-1.322.735-2.932 2.297-3.475 3.74-.421 1.121-1.296 4.428-1.51 5.61l-.755 5.765c-.133 1.678-.496 3.184-.151 4.831.186.887.417 2.921.919 4.261.504 1.347 1.282 2 1.951 2.595 1.367 1.218 5.74 1.87 5.74 1.87s-2.403-3.128-3.021-4.519c-.733-1.653-1.474-2.866-1.661-4.674z"/><path d="M253.817 182.03s3.528-2.986 4.114-6.364c.524-3.04-1.814-6.598-1.992-8.03-.708-5.724.794-13.35.929-13.973.538-2.476 1.214-3.536 1.575-4.347.26-.584 1.001-1.744 1.743-2.869.425-.646 1.372-1.847 1.855-3.071.512-1.295.545-2.615.554-3.318.012-1.199-.208-2.22-.517-3.196-.293-.929-1.249-2.447-2.634-3.32l-3.159-1.998c-1.517-.99-2.451-4.245-2.469-4.245s-.953 3.255-2.469 4.245l-3.105 1.998c-1.384.872-2.341 2.391-2.632 3.32-.31.976-.529 1.997-.516 3.196.007.703.042 2.023.554 3.318.482 1.223 1.429 2.424 1.856 3.071.741 1.125 1.482 2.285 1.741 2.869.361.811 1.038 1.871 1.576 4.347.135.623 1.637 8.249.928 13.973-.177 1.432-2.571 4.99-2.046 8.03.585 3.378 4.114 6.364 4.114 6.364z"/><path d="M261.744 163.665l-1.7-2.427h-12.399l-1.704 2.427 1.704 2.415h12.4l1.699-2.415zm120.282 1.358c.238-2.29.111-6.608-1.056-8.57-.395-.662-1.361-1.436-2.116-1.403-.742.033-1.765.258-2.115.934-.32.621-.529 1.952-.453 2.65.105.97 1.208 2.96 1.208 2.96s-3.95-.818-5.287-1.87c-1.322-1.041-2.751-3.014-3.172-4.675-.145-.569-.71-2.411.004-4.621.414-1.283 1.658-2.999 2.622-3.854 2.516-2.234 7.401-1.585 8.401-1.03 1.321.735 2.931 2.297 3.473 3.74.422 1.121 1.298 4.428 1.511 5.61l.755 5.765c.131 1.678.495 3.184.151 4.831-.186.887-.416 2.921-.919 4.261-.505 1.347-1.283 2-1.951 2.595-1.368 1.218-5.74 1.87-5.74 1.87s2.403-3.128 3.021-4.519c.736-1.653 1.477-2.866 1.663-4.674zm10.711 0c-.237-2.29-.111-6.608 1.057-8.57.394-.662 1.362-1.436 2.116-1.403.741.033 1.763.258 2.114.934.322.621.53 1.952.453 2.65-.107.97-1.209 2.96-1.209 2.96s3.951-.818 5.289-1.87c1.321-1.041 2.748-3.014 3.171-4.675.145-.569.709-2.411-.004-4.621-.414-1.283-1.66-2.999-2.622-3.854-2.517-2.234-7.403-1.585-8.402-1.03-1.322.735-2.932 2.297-3.475 3.74-.421 1.121-1.296 4.428-1.51 5.61l-.755 5.765c-.133 1.678-.496 3.184-.151 4.831.186.887.417 2.921.919 4.261.504 1.347 1.282 2 1.951 2.595 1.367 1.218 5.74 1.87 5.74 1.87s-2.403-3.128-3.021-4.519c-.733-1.653-1.474-2.866-1.661-4.674z"/><path d="M387.356 182.03s3.529-2.986 4.114-6.364c.524-3.04-1.814-6.598-1.992-8.03-.708-5.724.794-13.35.929-13.973.538-2.476 1.214-3.536 1.575-4.347.26-.584 1.002-1.744 1.743-2.869.425-.646 1.372-1.847 1.855-3.071.512-1.295.545-2.615.554-3.318.012-1.199-.208-2.22-.517-3.196-.293-.929-1.249-2.447-2.633-3.32l-3.16-1.998c-1.517-.99-2.451-4.245-2.469-4.245s-.952 3.255-2.469 4.245l-3.105 1.998c-1.384.872-2.341 2.391-2.632 3.32-.31.976-.529 1.997-.516 3.196.007.703.042 2.023.554 3.318.482 1.223 1.429 2.424 1.856 3.071.742 1.125 1.482 2.285 1.741 2.869.361.811 1.038 1.871 1.576 4.347.135.623 1.637 8.249.928 13.973-.177 1.432-2.571 4.99-2.046 8.03.585 3.378 4.114 6.364 4.114 6.364z"/><path d="M395.283 163.665l-1.7-2.427h-12.399l-1.704 2.427 1.704 2.415h12.4l1.699-2.415z"/><path d="M301.873 337.454h37.389v8.751h-37.389v-8.751zm-.001-1.904c-.063-8.218-1.218-16.692-4.724-23.908.435-.131.895-.2 1.371-.2 2.643 0 4.786 2.142 4.786 4.784 0 .656-.13 1.277-.368 1.844.614-.287 1.3-.447 2.023-.447a4.79 4.79 0 0 1 4.785 4.788 4.79 4.79 0 0 1-4.785 4.785 4.91 4.91 0 0 1-1-.106c.358 3.229 2.016 5.676 4.006 5.676 1.536 0 2.872-1.457 3.569-3.607.695 2.15 2.033 3.607 3.569 3.607 2.138 0 3.893-2.827 4.063-6.418a4.75 4.75 0 0 1-2.713.848c-2.645 0-4.787-2.144-4.787-4.785a4.79 4.79 0 0 1 4.75-4.788 4.76 4.76 0 0 1-.635-2.381c0-2.643 2.143-4.785 4.786-4.785s4.786 2.142 4.786 4.785a4.77 4.77 0 0 1-.635 2.381 4.79 4.79 0 0 1 4.749 4.788 4.79 4.79 0 0 1-4.785 4.785 4.75 4.75 0 0 1-2.714-.848c.169 3.591 1.924 6.418 4.065 6.418 1.536 0 2.873-1.457 3.569-3.607.695 2.15 2.032 3.607 3.568 3.607 1.991 0 3.647-2.447 4.007-5.676-.322.067-.659.106-1.001.106a4.79 4.79 0 0 1-4.785-4.785 4.79 4.79 0 0 1 4.785-4.788c.722 0 1.409.161 2.023.447-.236-.567-.368-1.189-.368-1.844 0-2.642 2.142-4.784 4.784-4.784a4.74 4.74 0 0 1 1.373.2c-3.506 7.216-4.661 15.69-4.724 23.908h-37.393z" class="U"/></g><g class="J"><path d="M321.668 322.386l5.095-.798-5.353-.841-.841-5.352-.838 5.352-5.354.841 5.096.798h2.195zm-19.966 16.509a.75.75 0 0 1 .539.221c.078.08.135.169.173.269l.882 1.94a.76.76 0 0 1 0 .625h0l-.901 1.981a.76.76 0 0 1-.694.447l.001-5.483zm.441-15.16l4.885-1.652-5.417.079-1.736-5.131 1.303 6.452.965.252z"/><path d="M300.765 321.213h.038.013l.121.011c.102.012.195.049.27.108l.002.003.004.003a2.71 2.71 0 0 1 .257.212l.026.029c.084.079.158.155.219.231l.027.033c.375.47.601 1.068.601 1.716h.003v.007h-.003c0 .25-.032.485-.093.707l-.007.023-.023.076-.015.043-.003.007-.003.007c-.057.168-.127.333-.213.482a.53.53 0 0 1-.194.196h.001l-.005.004h-.003l-.004.004-.126.071-.1.048-.891-4.018.032-.002v-.001h.004l.065.003v-.003z"/></g><use xlink:href="#AA" class="L"/><use xlink:href="#AA" class="B E V"/><use xlink:href="#AA" class="L"/><path d="M323.706 341.715l-3.294 1.946-.058.035v-1.981h3.352z" class="M"/><path d="M320.355 341.715v1.981l-3.353-1.981h3.353z" class="W"/><path d="M320.354 339.732v1.829.154h3.352l-.079-.047-3.034-1.793-.239-.143z" class="N"/><path d="M299.895 341.648l1.979-1.98.901 1.98-.901 1.981-1.979-1.981z" fill="#f9c"/><path d="M299.895 341.643h2.88l-.901 1.98-1.979-1.98z" fill="red"/><use xlink:href="#AB" class="F"/><use xlink:href="#AB" class="B E"/><path d="M299.953 322.369a.75.75 0 0 1 .747.748c0 .413-.334.748-.747.748a.75.75 0 0 1-.748-.748.75.75 0 0 1 .748-.748z" class="C"/><g class="J"><path d="M338.992 323.735l-4.885-1.652 5.416.079 1.735-5.131-1.301 6.452-.965.252z"/><path d="M340.374 321.213h-.038-.015l-.12.011a.53.53 0 0 0-.269.108l-.003.003-.003.003a2.71 2.71 0 0 0-.257.212l-.028.029a2.29 2.29 0 0 0-.218.231l-.026.033c-.377.47-.603 1.068-.603 1.716h-.001v.007h.001c.001.25.034.485.095.707l.008.023.022.076a.24.24 0 0 0 .015.043l.003.007.003.007a2.58 2.58 0 0 0 .214.482.52.52 0 0 0 .193.196l.003.004h.004l.003.004.127.071.099.048.892-4.018-.032-.002v-.001h-.005l-.064.003v-.003z"/></g><use xlink:href="#AC" class="F"/><use xlink:href="#AC" class="B E"/><path d="M340.713 322.072a.75.75 0 0 0-.748.748c0 .412.335.746.748.746a.75.75 0 0 0 .748-.746.75.75 0 0 0-.748-.748z" class="C"/><path d="M339.436 338.895c-.196-.001-.391.072-.541.221a.79.79 0 0 0-.173.269l-.882 1.94c-.092.207-.086.433.002.625h-.002l.901 1.981a.76.76 0 0 0 .695.447v-5.483z" class="J"/><path d="M341.242 341.648l-1.981-1.98-.902 1.98.902 1.981 1.981-1.981z" class="N"/><path d="M341.242 341.643h-2.883l.902 1.98 1.981-1.98z" class="M"/><path d="M320.571 323.355c.97 0 1.756-.787 1.756-1.757s-.786-1.756-1.756-1.756-1.757.786-1.757 1.756a1.76 1.76 0 0 0 1.757 1.757z" class="E F G"/><path d="M320.253 321.804a.75.75 0 0 0 .749-.749.75.75 0 0 0-.749-.748.75.75 0 0 0-.749.748.75.75 0 0 0 .749.749z" class="C"/><use xlink:href="#AD" class="E F G"/><use xlink:href="#AE" class="C"/><path d="M311.803 344.976a1.28 1.28 0 1 0 0-2.562 1.28 1.28 0 1 0 0 2.562z" class="E F G"/><path d="M311.58 343.835a.52.52 0 1 0 0-1.04.52.52 0 0 0 0 1.04z" class="C"/><path d="M329.529 341.248a1.28 1.28 0 1 0 0-2.562 1.28 1.28 0 1 0 0 2.562z" class="E F G"/><path d="M329.309 340.108a.52.52 0 1 0 0-1.04.52.52 0 1 0 0 1.04z" class="C"/><path d="M329.529 344.976a1.28 1.28 0 1 0 0-2.562 1.28 1.28 0 1 0 0 2.562z" class="E F G"/><path d="M329.309 343.835a.52.52 0 1 0 0-1.04.52.52 0 0 0 0 1.04z" class="C"/><path d="M264.129 295.135h37.389v8.752h-37.389v-8.752zm-.002-1.903c-.062-8.219-1.218-16.692-4.723-23.908.435-.131.895-.2 1.371-.2 2.643 0 4.786 2.141 4.786 4.784 0 .656-.13 1.277-.368 1.844.614-.287 1.3-.447 2.023-.447a4.79 4.79 0 0 1 4.785 4.788c0 2.641-2.143 4.784-4.785 4.784a4.84 4.84 0 0 1-1-.106c.358 3.23 2.016 5.677 4.006 5.677 1.536 0 2.872-1.457 3.568-3.607.696 2.15 2.034 3.607 3.569 3.607 2.139 0 3.893-2.827 4.064-6.418a4.75 4.75 0 0 1-2.713.847c-2.645 0-4.787-2.143-4.787-4.784a4.79 4.79 0 0 1 4.75-4.788 4.75 4.75 0 0 1-.635-2.382c0-2.642 2.143-4.784 4.786-4.784s4.786 2.142 4.786 4.784c0 .867-.233 1.682-.635 2.382a4.79 4.79 0 0 1 4.749 4.788c0 2.641-2.143 4.784-4.785 4.784a4.75 4.75 0 0 1-2.714-.847c.169 3.591 1.924 6.418 4.065 6.418 1.536 0 2.873-1.457 3.568-3.607.696 2.15 2.033 3.607 3.569 3.607 1.991 0 3.647-2.447 4.007-5.677-.323.068-.659.106-1.001.106-2.642 0-4.785-2.143-4.785-4.784a4.79 4.79 0 0 1 4.785-4.788 4.76 4.76 0 0 1 2.022.447c-.235-.568-.367-1.189-.367-1.844 0-2.643 2.142-4.784 4.784-4.784.478 0 .939.069 1.373.2-3.506 7.216-4.661 15.689-4.724 23.908h-37.394z" class="B H I U"/><g class="J"><path d="M283.923 280.068l5.095-.799-5.353-.841-.841-5.352-.837 5.352-5.354.841 5.096.799h2.194zm-19.965 16.508a.75.75 0 0 1 .539.222c.078.079.135.169.173.269l.882 1.94a.76.76 0 0 1-.001.625h.001l-.901 1.981a.76.76 0 0 1-.694.447l.001-5.484zm.441-15.159l4.885-1.652-5.417.079-1.736-5.131 1.302 6.452.966.252z"/><path d="M263.021 278.895h.038.013l.121.01c.102.013.195.049.27.109l.002.003.004.003c.091.067.177.138.257.212l.026.029c.083.078.158.155.219.231l.026.032c.376.471.602 1.069.602 1.717h.003v.007h-.003c0 .249-.032.485-.093.706l-.007.023-.023.077-.015.043-.003.006-.003.007c-.057.168-.127.333-.213.482a.54.54 0 0 1-.194.197h.001l-.005.003-.003.001-.004.004-.126.07-.1.049-.891-4.018.032-.003h0 .004l.065.003v-.003z"/></g><use xlink:href="#AF" class="L"/><use xlink:href="#AF" class="B E V"/><use xlink:href="#AF" class="L"/><path d="M285.962 299.396l-3.294 1.947-.059.034v-1.981h3.353z" class="M"/><path d="M282.611 299.396v1.981l-3.353-1.981h3.353z" class="W"/><path d="M282.609 297.414v1.829.153h3.353l-.079-.047-3.034-1.792-.24-.143z" class="N"/><path d="M262.15 299.33l1.98-1.98.901 1.98-.901 1.98-1.98-1.98z" fill="#f9c"/><path d="M262.15 299.324h2.881l-.901 1.981-1.98-1.981z" fill="red"/><use xlink:href="#AG" class="F"/><use xlink:href="#AG" class="B E"/><use xlink:href="#AH" class="C"/><g class="J"><path d="M301.248 281.417l-4.885-1.652 5.415.079 1.736-5.131-1.302 6.452-.964.252z"/><path d="M302.63 278.895h-.038-.016l-.119.01c-.101.013-.195.049-.269.109l-.003.003-.003.003a2.71 2.71 0 0 0-.257.212l-.028.029a2.19 2.19 0 0 0-.218.231l-.027.032c-.376.471-.602 1.069-.602 1.717h-.001v.007h.001c0 .249.034.485.095.706l.008.023.022.077a.54.54 0 0 0 .014.043l.003.006.004.007a2.58 2.58 0 0 0 .214.482.52.52 0 0 0 .193.197l.003.003.004.001.003.004.127.07.099.049.892-4.018-.033-.003h0-.004l-.065.003.001-.003z"/></g><use xlink:href="#AI" class="F"/><use xlink:href="#AI" class="B E"/><use xlink:href="#AJ" class="C"/><path d="M301.691 296.576a.76.76 0 0 0-.54.222.78.78 0 0 0-.173.269l-.882 1.94c-.093.206-.086.432.002.625h-.002l.9 1.981a.76.76 0 0 0 .695.447v-5.484z" class="J"/><path d="M303.498 299.33l-1.981-1.98-.902 1.98.902 1.98 1.981-1.98z" class="N"/><path d="M303.498 299.324h-2.883l.902 1.981 1.981-1.981z" class="M"/><use xlink:href="#AK" class="E F G"/><path d="M282.509 279.486a.75.75 0 0 0 .748-.749.75.75 0 0 0-.748-.749.75.75 0 0 0-.749.749.75.75 0 0 0 .749.749z" class="C"/><path d="M274.058 298.929a1.28 1.28 0 1 0 0-2.562 1.28 1.28 0 1 0 0 2.562z" class="E F G"/><path d="M273.836 297.79a.52.52 0 1 0 0-1.04.52.52 0 1 0 0 1.04z" class="C"/><path d="M274.058 302.658a1.28 1.28 0 1 0 0-2.562 1.28 1.28 0 1 0 0 2.562z" class="E F G"/><path d="M273.836 301.516a.52.52 0 0 0 .52-.52.52.52 0 1 0-1.04 0 .52.52 0 0 0 .52.52z" class="C"/><path d="M291.785 298.929a1.28 1.28 0 1 0 0-2.562 1.28 1.28 0 1 0 0 2.562z" class="E F G"/><path d="M291.565 297.79a.52.52 0 1 0 0-1.04.52.52 0 1 0 0 1.04z" class="C"/><path d="M291.785 302.658a1.28 1.28 0 1 0 0-2.562 1.28 1.28 0 1 0 0 2.562z" class="E F G"/><path d="M291.565 301.516a.52.52 0 0 0 .52-.52.52.52 0 0 0-1.04 0 .52.52 0 0 0 .52.52z" class="C"/><path d="M339.623 295.135h37.389v8.752h-37.389v-8.752zm-.001-1.903c-.063-8.219-1.218-16.692-4.724-23.908.435-.131.895-.2 1.371-.2 2.643 0 4.786 2.141 4.786 4.784 0 .656-.13 1.277-.368 1.844.614-.287 1.3-.447 2.023-.447a4.79 4.79 0 0 1 4.785 4.788c0 2.641-2.143 4.784-4.785 4.784a4.84 4.84 0 0 1-1-.106c.358 3.23 2.016 5.677 4.006 5.677 1.536 0 2.872-1.457 3.569-3.607.695 2.15 2.033 3.607 3.569 3.607 2.138 0 3.893-2.827 4.063-6.418a4.75 4.75 0 0 1-2.713.847c-2.645 0-4.787-2.143-4.787-4.784a4.79 4.79 0 0 1 4.75-4.788 4.76 4.76 0 0 1-.635-2.382c0-2.642 2.143-4.784 4.786-4.784s4.786 2.142 4.786 4.784c0 .867-.233 1.682-.635 2.382a4.79 4.79 0 0 1 4.749 4.788c0 2.641-2.143 4.784-4.785 4.784a4.75 4.75 0 0 1-2.714-.847c.169 3.591 1.924 6.418 4.065 6.418 1.536 0 2.873-1.457 3.569-3.607.695 2.15 2.032 3.607 3.568 3.607 1.991 0 3.647-2.447 4.007-5.677-.322.068-.659.106-1.001.106-2.642 0-4.785-2.143-4.785-4.784a4.79 4.79 0 0 1 4.785-4.788 4.77 4.77 0 0 1 2.023.447 4.79 4.79 0 0 1-.368-1.844c0-2.643 2.142-4.784 4.784-4.784a4.74 4.74 0 0 1 1.373.2c-3.506 7.216-4.661 15.689-4.724 23.908h-37.393z" class="B H I U"/><g class="J"><path d="M359.418 280.068l5.095-.799-5.353-.841-.841-5.352-.838 5.352-5.354.841 5.096.799h2.195zm-19.966 16.508a.75.75 0 0 1 .539.222c.078.079.135.169.173.269l.882 1.94a.76.76 0 0 1 0 .625h0l-.901 1.981a.76.76 0 0 1-.694.447l.001-5.484zm.441-15.159l4.885-1.652-5.417.079-1.736-5.131 1.303 6.452.965.252z"/><path d="M338.515 278.895h.038.013l.121.01c.102.013.195.049.27.109l.002.003.004.003a2.71 2.71 0 0 1 .257.212l.026.029c.084.078.158.155.219.231l.027.032a2.75 2.75 0 0 1 .601 1.717h.003v.007h-.003c0 .249-.032.485-.093.706l-.007.023-.023.077-.015.043-.003.006-.003.007c-.057.168-.127.333-.213.482a.53.53 0 0 1-.194.197h.001l-.005.003-.003.001-.004.004-.126.07-.1.049-.891-4.018.032-.003h0 .004l.065.003v-.003z"/></g><use xlink:href="#AL" class="L"/><use xlink:href="#AL" class="B E V"/><use xlink:href="#AL" class="L"/><path d="M361.456 299.396l-3.294 1.947-.058.034v-1.981h3.352z" class="M"/><path d="M358.105 299.396v1.981l-3.353-1.981h3.353z" class="W"/><path d="M358.104 297.414v1.829.153h3.352l-.079-.047-3.034-1.792-.239-.143z" class="N"/><path d="M337.645 299.33l1.979-1.98.901 1.98-.901 1.98-1.979-1.98z" fill="#f9c"/><path d="M337.645 299.324h2.88l-.901 1.981-1.979-1.981z" fill="red"/><use xlink:href="#AM" class="F"/><use xlink:href="#AM" class="B E"/><path d="M337.703 280.051a.75.75 0 0 1 .747.748.75.75 0 0 1-.747.748.75.75 0 0 1-.748-.748.75.75 0 0 1 .748-.748z" class="C"/><g class="J"><path d="M376.742 281.417l-4.885-1.652 5.416.079 1.735-5.131-1.301 6.452-.965.252z"/><path d="M378.124 278.895h-.038-.015l-.12.01c-.101.013-.195.049-.269.109l-.003.003-.003.003a2.71 2.71 0 0 0-.257.212l-.028.029a2.19 2.19 0 0 0-.218.231l-.026.032a2.74 2.74 0 0 0-.603 1.717h-.001v.007h.001c.001.249.034.485.095.706l.008.023.022.077c.004.015.009.029.015.043l.003.006.003.007a2.58 2.58 0 0 0 .214.482.52.52 0 0 0 .193.197l.003.003.004.001.003.004.127.07.099.049.892-4.018-.032-.003h0-.005l-.064.003v-.003z"/></g><use xlink:href="#AN" class="F"/><use xlink:href="#AN" class="B E"/><path d="M378.463 279.754c-.413 0-.748.334-.748.747s.335.747.748.747a.75.75 0 0 0 .748-.747.75.75 0 0 0-.748-.747z" class="C"/><path d="M377.186 296.576a.76.76 0 0 0-.541.222.78.78 0 0 0-.173.269l-.882 1.94c-.092.206-.086.432.002.625h-.002l.901 1.981a.76.76 0 0 0 .695.447v-5.484z" class="J"/><path d="M378.992 299.33l-1.981-1.98-.902 1.98.902 1.98 1.981-1.98z" class="N"/><path d="M378.992 299.324h-2.883l.902 1.981 1.981-1.981z" class="M"/><path d="M358.321 281.036c.97 0 1.756-.786 1.756-1.756s-.786-1.757-1.756-1.757a1.76 1.76 0 0 0-1.757 1.757c0 .97.787 1.756 1.757 1.756z" class="E F G"/><path d="M358.003 279.486a.75.75 0 0 0 .749-.749.75.75 0 0 0-.749-.749.75.75 0 0 0-.749.749.75.75 0 0 0 .749.749z" class="C"/><path d="M349.553 298.929a1.28 1.28 0 1 0 0-2.562 1.28 1.28 0 1 0 0 2.562z" class="E F G"/><path d="M349.33 297.79a.52.52 0 1 0 0-1.04.52.52 0 1 0 0 1.04z" class="C"/><path d="M349.553 302.658a1.28 1.28 0 1 0 0-2.562 1.28 1.28 0 1 0 0 2.562z" class="E F G"/><path d="M349.33 301.516a.52.52 0 0 0 .52-.52.52.52 0 0 0-.52-.519.52.52 0 0 0-.519.519.52.52 0 0 0 .519.52z" class="C"/><path d="M367.279 298.929a1.28 1.28 0 1 0 0-2.562 1.28 1.28 0 1 0 0 2.562z" class="E F G"/><path d="M367.059 297.79a.52.52 0 1 0 0-1.04.52.52 0 1 0 0 1.04z" class="C"/><path d="M367.279 302.658a1.28 1.28 0 1 0 0-2.562 1.28 1.28 0 1 0 0 2.562z" class="E F G"/><path d="M367.059 301.516a.52.52 0 0 0 .52-.52.52.52 0 1 0-1.04 0 .52.52 0 0 0 .52.52z" class="C"/></g><defs><clipPath id="A"><path d="M0 0h640v480H0z" class="C"/></clipPath><path id="B" d="M466.145 302.863c8.244 19.388 4.7 34.675 0 49.559 11.887-4.307 37.139-16.138 34.113-30.893-5.294-12.916-21.772-16.081-34.113-18.666z"/><path id="C" d="M424.02 386.793c7.493-2.421 12.638-5.179 25.044-6.9 5.114-.709 18.89.123 26.877-2.362 7.692-2.396 12.145-4.67 12.364-8.529.391-6.917 2.635-14.839 5.346-22.03 3.868-10.262 8.564-18.535 9.289-21.308.685-2.614-.491-5.235-2.224-7.638-6.752-9.365-21.885-16.194-35.369-16.178l.573 2.295c10.382.188 30.907 7.965 32.141 18.367 1.861 15.666-51.106 18.041-80.528 23.857 0 0-7.587 1.886-10.172 4.554-1.831 1.887-2.764 6.771-.859 8.58 13.455 12.786 17.518 27.292 17.518 27.292z"/><path id="D" d="M416.846 395.403c3.649-17.652-7.68-24.608-13.774-35.298 0 0 6.566 2.691 10.043 3.156 6.523.871 10.286.737 19.723-.783 7.725-1.244 14.217-5.137 19.595-2.661.747.344 1.321 1.194 1.434 2.01.349 2.518-1.114 5.1-2.582 7.174-8.059 11.373-34.439 26.402-34.439 26.402z"/><path id="E" d="M173.784 302.863c-8.245 19.388-4.701 34.675 0 49.559-11.888-4.307-37.14-16.138-34.112-30.893 5.294-12.916 21.77-16.081 34.112-18.666z"/><path id="F" d="M215.909 386.793c-7.493-2.421-12.637-5.179-25.043-6.9-5.115-.709-18.89.123-26.877-2.362-7.692-2.396-12.147-4.67-12.365-8.529-.391-6.917-2.635-14.839-5.346-22.03-3.87-10.262-8.566-18.535-9.289-21.308-.684-2.614.491-5.235 2.225-7.638 6.752-9.365 21.887-16.194 35.37-16.178l-.574 2.295c-10.38.188-30.906 7.965-32.142 18.367-1.86 15.666 51.106 18.041 80.53 23.857 0 0 7.585 1.886 10.171 4.554 1.831 1.887 2.764 6.771.858 8.58-13.453 12.786-17.518 27.292-17.518 27.292z"/><path id="G" d="M223.083 395.403c-3.648-17.652 7.68-24.608 13.776-35.298 0 0-6.566 2.691-10.046 3.156-6.52.871-10.284.737-19.721-.783-7.724-1.244-14.218-5.137-19.595-2.661-.748.344-1.322 1.194-1.435 2.01-.349 2.518 1.113 5.1 2.582 7.174 8.061 11.373 34.439 26.402 34.439 26.402z"/><path id="H" d="M194.46 417.171c-3.428-2.197-7.333-4.372-9.505-7.676-1.497-2.278-2.148-5.406-1.463-8.045 4.006-15.432 3.154-23.695.377-35.381-.897-3.776-1.811-9.477 2.914-9.223 12.119.653 25.705 4.52 35.464 4.171 3.987-.145 9.946-.938 10.457-5.285.608-5.163-12.65-9.75-12.65-9.75 7.88.905 14.401 4.166 16.639 8.777.91 1.875.488 4.529-.686 6.252-2.311 3.397-6.708 4.317-10.778 4.863-8.109 1.094-21.854-1.129-29.626-2.621-3.515-.674-4.744-1.227-5.358-.746-1.537 1.212.562 3.658 5.456 8.233 9.9 9.259 21.44 16.798 33.349 23.276 32.432 17.639 57.235 23.274 90.917 23.274s58.482-5.634 90.916-23.274c11.908-6.478 23.447-14.018 33.348-23.276 4.894-4.575 6.995-7.021 5.453-8.233-.609-.48-1.839.073-5.356.746-7.772 1.492-21.517 3.715-29.626 2.621-4.067-.545-8.467-1.466-10.777-4.862-1.175-1.723-1.596-4.377-.685-6.252 2.238-4.611 8.757-7.872 16.638-8.776 0 0-13.257 4.587-12.65 9.75.511 4.347 6.47 5.14 10.457 5.284 9.76.35 23.344-3.517 35.465-4.171 4.725-.254 3.811 5.447 2.913 9.224-2.778 11.685-3.632 19.949.377 35.381.683 2.638.032 5.767-1.463 8.044-2.172 3.305-6.076 5.48-9.507 7.677-39.86 25.558-84.66 38.681-125.503 38.681s-85.646-13.124-125.507-38.683z"/><path id="I" d="M156.93 305.687l-.53 31.06c13.14 12.875 14.699 17.592 18.582 21.77 5.044-7.302 12.875-4.382 12.875-4.382 1.594-6.901 9.956-12.875 9.956-12.875-11.68-.928-31.856-6.903-33.449-9.292-5.29-7.935 1.99-31.988 1.99-31.988l-9.424 5.707z"/><path id="J" d="M166.52 291.461s16.228-6.624 32.861 5.046c1.589.464 2.75.328 4.014.108 3.215-3.447 10.507-13.582 16.139-12.268.415-8.563-.564-42.799-.564-42.799-2.439-.095-3.285 4.693-3.285 4.693 1.409 9.76-4.224 69.08-27.312 29.846l-16.332 1.689-5.521 13.685z"/><path id="K" d="M157.631 154.248c13.938 5.044 14.112 7.709 27.914 19.92 11.017 4.381 27.426 15.123 28.355 17.513l-.894 3.489c2.124 1.327 4.13-3.566 4.13-3.566-2.123-12.08-40.916-48.463-40.916-48.463l-17.087 3.598-1.502 7.509z"/><path id="L" d="M162.652 138.557c-.187-14.453 16.895-24.026 16.895-25.34-1.69-10.303-26.093 14.265-27.408 17.457-1.508 4.657 1.878 10.324 1.878 10.324"/><path id="M" d="M154.766 138.37c-2.064-13.892 8.448-25.905 7.697-26.281-6.459-3.229-14.83 13.891-17.27 19.523l3.191 19.146"/><path id="N" d="M149.325 145.689c-3.379-3.378-.188-27.593-1.126-27.593-7.133 0-10.887 23.275-9.385 28.157 4.87 15.831 8.822 18.583 8.822 18.583"/><path id="O" d="M147.635 163.526c-9.01-8.447-10.573-31.113-11.825-33.413-9.641 1.878-4.693 25.905-4.693 25.905.188 1.877 12.764 16.894 12.764 16.894"/><path id="P" d="M158.901 217.209s-2.441-32.662 1.688-37.541l-12.2-18.022-15.768 31.348 14.266 26.093 12.014-1.878z"/><path id="Q" d="M147.41 288.388c5.35 6.85 7.964 22.3 7.964 22.3l1.593-5.045c.751.469 1.206 4.381 2.256 4.381.469 0 .387-4.033 1.46-4.249.469-.093.158 5.575 1.195 5.575.845 0 .912-4.036 1.194-3.85.664.442.795 5.359 1.328 2.788-.75-26.374 50.949-47.956 49.909-77.519 1.314-30.596-31.592-42.208-51.767-67.958 0 0-5.669-16.886 4.777-9.425 8.448-1.314 7.7-9.689 7.7-9.689h4.645c2.066-18.02-16.06-13.804-16.06-13.804-16.8 0-18.317 17.388-18.317 17.388-4.318 22.62 24.992 49.559 24.992 49.559 4.317 9.386-.038 25.57-.038 25.57l-40.792 38.431"/><path id="R" d="M129.923 262.539c-2.254 2.723-13.827 16.438-16.642 21.224-3.987 4.395 3.763 3.159 3.763 3.159s-11.46 12.115-17.026 15.658c1.708 5.127 12.699-2.299 12.699-2.299s-10.7 6.57-10.136 7.884c3.265 2.492 12.764-4.504 12.764-4.504s-2.269 3.19-.376 4.317c3.192 0 10.512-5.819 10.512-5.819s-1.502 3.379.188 3.941c3.052-1.924 22.151-17.834 22.151-17.834"/><path id="S" d="M136.495 234.776c-4.646 9.026-10.576 23.908-4.116 30.528 2.124.664 7.791-21.203 12.212-23.228l3.583-12.211"/><path id="T" d="M145.653 235.443c-3.584 16.857-.265 20.441 1.195 20.574 2.123-1.063 5.84-16.461 10.087-17.39"/><path id="U" d="M127.468 157.394c-14.865-13.937-16.857-29.864-18.45-29.999-7.016-.583 2.389 28.274 2.389 28.274l17.786 14.202"/><path id="V" d="M127.468 167.481c-22.034-12.212-24.689-32.122-26.547-31.459-6.784 2.68 1.858 20.973 1.858 20.973 1.195 5.044 18.716 20.839 18.716 20.839"/><path id="W" d="M120.698 176.374c-26.413-14.6-26.945-31.326-29.865-30.263-6.273 17.002 16.724 33.05 32.918 45.129"/><path id="X" d="M123.222 190.844c-22.963-7.299-34.05-28.7-36.901-27.608-6.636 2.522 7.301 20.441 7.301 20.441 11.282 10.486 29.866 18.184 29.866 18.184"/><path id="Y" d="M123.353 200.532c-36.767-11.814-38.227-23.361-41.679-22.433-6.547 4.979 14.468 21.504 14.468 21.504 2.653 3.981 29.467 11.282 29.467 11.282"/><path id="Z" d="M125.076 210.753c-35.174-7.435-40.351-17.787-43.139-17.123-4.396 5.976 16.858 18.98 16.858 18.98 13.14 7.566 30.927 8.627 30.927 8.627"/><path id="a" d="M124.015 233.847c-9.821 9.026-15.396 25.878-10.353 26.946 2.787.131 10.353-19.646 21.371-22.432l7.034-6.107"/><path id="b" d="M118.838 225.617c-14.335 10.751-18.922 23.468-16.856 24.158 3.184 1.062 15.932-12.189 20.574-13.01 2.256-.397 15.662-7.564 15.662-7.564"/><path id="c" d="M129.06 220.975c-15.663 1.858-43.139-14.866-43.669-13.406-6.819 7.988 22.697 21.37 29.2 20.706l23.096 1.46"/><path id="d" d="M178.231 222.841s0-8.823-4.317-9.199c0 0-9.761-.749-20.648 1.127-24.902-14.866-5.395-33.962-8.824-40.546-1.126-10.137-17.832-25.342-17.832-25.342-1.689 1.503.34 10.965-.939 10.325-3.379-1.689-1.295 5.748-2.253 7.696-3.191-1.126-3.027 3.704-2.252 7.321-2.628.376-1.691 4.88-1.127 8.072-5.153-2.835 1.56 8.036-.188 7.695-7.884-1.126 1.127 7.51 1.127 7.51-4.505 1.689-2.401 5.04.752 6.382-3.943 2.815.092 7.311 1.5 7.509-3.566 1.877.403 4.59 2.44 6.57-3.191 3.004 2.628 4.286 5.445 5.443-2.253 3.566.396 4.337 2.815 5.443-1.501 2.816 2.193 2.607 4.504 2.254-2.814 3.003 1.878 4.317 3.755 3.94 0 0 1.001 3.897 4.318 2.442-.937 3.005 5.82 2.629 5.82 2.629 0 3.006 9.949 1.877 9.949 1.877"/><path id="e" d="M483.839 305.687l.53 31.06c-13.14 12.875-14.699 17.592-18.582 21.77-5.043-7.302-12.874-4.382-12.874-4.382-1.594-6.901-9.957-12.875-9.957-12.875 11.681-.928 31.857-6.903 33.45-9.292 5.29-7.935-1.991-31.988-1.991-31.988l9.424 5.707z"/><path id="f" d="M474.25 291.461s-16.229-6.624-32.861 5.046c-1.589.464-2.75.328-4.015.108-3.214-3.447-10.507-13.582-16.138-12.268-.415-8.563.563-42.799.563-42.799 2.44-.095 3.285 4.693 3.285 4.693-1.408 9.76 4.224 69.08 27.313 29.846l16.331 1.689 5.522 13.685z"/><path id="g" d="M483.139 154.248c-13.938 5.044-14.112 7.709-27.915 19.92-11.017 4.381-27.425 15.123-28.354 17.513l.894 3.489c-2.125 1.327-4.131-3.566-4.131-3.566 2.124-12.08 40.916-48.463 40.916-48.463l17.087 3.598 1.503 7.509z"/><path id="h" d="M478.117 138.557c.188-14.453-16.895-24.026-16.895-25.34 1.69-10.303 26.094 14.265 27.408 17.457 1.509 4.657-1.877 10.324-1.877 10.324"/><path id="i" d="M486.003 138.37c2.064-13.892-8.448-25.905-7.697-26.281 6.46-3.229 14.831 13.891 17.27 19.523l-3.191 19.146"/><path id="j" d="M491.444 145.689c3.379-3.378.188-27.593 1.127-27.593 7.133 0 10.886 23.275 9.385 28.157-4.871 15.831-8.822 18.583-8.822 18.583"/><path id="k" d="M493.135 163.526c9.009-8.447 10.572-31.113 11.825-33.413 9.64 1.878 4.692 25.905 4.692 25.905-.187 1.877-12.764 16.894-12.764 16.894"/><path id="l" d="M481.869 217.209s2.441-32.662-1.689-37.541l12.201-18.022 15.767 31.348-14.265 26.093-12.014-1.878z"/><path id="m" d="M493.358 288.388c-5.35 6.85-7.964 22.3-7.964 22.3l-1.593-5.045c-.751.469-1.207 4.381-2.256 4.381-.47 0-.388-4.033-1.46-4.249-.47-.093-.159 5.575-1.195 5.575-.845 0-.913-4.036-1.195-3.85-.663.442-.795 5.359-1.328 2.788.751-26.374-50.949-47.956-49.908-77.519-1.314-30.596 31.592-42.208 51.767-67.958 0 0 5.669-16.886-4.778-9.425-8.448-1.314-7.699-9.689-7.699-9.689h-4.646c-2.065-18.02 16.061-13.804 16.061-13.804 16.8 0 18.317 17.388 18.317 17.388 4.317 22.62-24.993 49.559-24.993 49.559-4.317 9.386.039 25.57.039 25.57l40.791 38.431"/><path id="n" d="M510.847 262.539c2.253 2.723 13.826 16.438 16.642 21.224 3.986 4.395-3.764 3.159-3.764 3.159s11.46 12.115 17.027 15.658c-1.709 5.127-12.7-2.299-12.7-2.299s10.701 6.57 10.136 7.884c-3.264 2.492-12.763-4.504-12.763-4.504s2.269 3.19.376 4.317c-3.192 0-10.512-5.819-10.512-5.819s1.501 3.379-.188 3.941c-3.052-1.924-22.152-17.834-22.152-17.834"/><path id="o" d="M504.275 234.776c4.646 9.026 10.575 23.908 4.116 30.528-2.125.664-7.792-21.203-12.212-23.228l-3.584-12.211"/><path id="p" d="M495.117 235.443c3.583 16.857.265 20.441-1.195 20.574-2.124-1.063-5.841-16.461-10.088-17.39"/><path id="q" d="M513.301 157.394c14.866-13.937 16.858-29.864 18.451-29.999 7.015-.583-2.39 28.274-2.39 28.274l-17.786 14.202"/><path id="r" d="M513.302 167.481c22.033-12.212 24.688-32.122 26.546-31.459 6.785 2.68-1.858 20.973-1.858 20.973-1.195 5.044-18.716 20.839-18.716 20.839"/><path id="s" d="M520.071 176.374c26.414-14.6 26.945-31.326 29.865-30.263 6.273 17.002-16.724 33.05-32.918 45.129"/><path id="t" d="M517.548 190.841c22.963-7.3 34.05-28.701 36.901-27.609 6.636 2.522-7.301 20.441-7.301 20.441-11.282 10.486-29.865 18.184-29.865 18.184"/><path id="u" d="M517.417 200.532c36.767-11.814 38.227-23.361 41.678-22.433 6.547 4.979-14.468 21.504-14.468 21.504-2.654 3.981-29.468 11.282-29.468 11.282"/><path id="v" d="M515.694 210.753c35.174-7.435 40.35-17.787 43.139-17.123 4.396 5.976-16.858 18.98-16.858 18.98-13.141 7.566-30.927 8.627-30.927 8.627"/><path id="w" d="M516.755 233.847c9.821 9.026 15.396 25.878 10.352 26.946-2.787.131-10.352-19.646-21.37-22.432l-7.034-6.107"/><path id="x" d="M521.932 225.617c14.335 10.751 18.921 23.468 16.856 24.158-3.185 1.062-15.932-12.189-20.574-13.01-2.256-.397-15.663-7.564-15.663-7.564"/><path id="y" d="M511.71 220.975c15.662 1.858 43.138-14.866 43.669-13.406 6.819 7.988-22.697 21.37-29.201 20.706l-23.095 1.46"/><path id="z" d="M462.538 222.841s0-8.823 4.317-9.199c0 0 9.761-.749 20.649 1.127 24.901-14.866 5.394-33.962 8.823-40.546 1.126-10.137 17.832-25.342 17.832-25.342 1.69 1.503-.34 10.965.94 10.325 3.378-1.689 1.294 5.748 2.252 7.696 3.191-1.126 3.028 3.704 2.253 7.321 2.628.376 1.69 4.88 1.126 8.072 5.154-2.835-1.559 8.036.189 7.695 7.883-1.126-1.127 7.51-1.127 7.51 4.505 1.689 2.401 5.04-.752 6.382 3.943 2.815-.093 7.311-1.501 7.509 3.567 1.877-.402 4.59-2.44 6.57 3.191 3.004-2.628 4.286-5.445 5.443 2.254 3.566-.395 4.337-2.814 5.443 1.501 2.816-2.194 2.607-4.505 2.254 2.815 3.003-1.877 4.317-3.754 3.94 0 0-1.002 3.897-4.319 2.442.938 3.005-5.82 2.629-5.82 2.629 0 3.006-9.949 1.877-9.949 1.877"/><path id="AA" d="M317.002 341.715l3.352-1.981 3.353 1.981-3.353 1.981-3.352-1.981z"/><path id="AB" d="M300.701 321.748a1.28 1.28 0 0 1 .176.011c.563.399.93 1.059.93 1.802 0 .394-.106.764-.287 1.085-.239.147-.518.234-.819.234-.864 0-1.566-.701-1.566-1.566a1.57 1.57 0 0 1 1.566-1.566z"/><path id="AC" d="M340.437 321.748a1.28 1.28 0 0 0-.178.011c-.562.399-.929 1.059-.929 1.802 0 .394.104.764.286 1.085.241.147.518.234.821.234.863 0 1.563-.701 1.563-1.566s-.7-1.566-1.563-1.566z"/><path id="AD" d="M311.803 341.248a1.28 1.28 0 1 0 0-2.562 1.28 1.28 0 1 0 0 2.562z"/><path id="AE" d="M311.58 340.108a.52.52 0 1 0 0-1.04.52.52 0 1 0 0 1.04z"/><path id="AF" d="M279.258 299.397l3.352-1.981 3.352 1.981-3.352 1.98-3.352-1.98z"/><path id="AG" d="M262.957 279.43a1.47 1.47 0 0 1 .176.01 2.21 2.21 0 0 1 .93 1.802c0 .395-.106.765-.287 1.086-.239.147-.518.234-.819.234a1.57 1.57 0 0 1-1.566-1.566 1.57 1.57 0 0 1 1.566-1.566z"/><path id="AH" d="M262.209 280.051a.75.75 0 0 1 .747.748.75.75 0 0 1-.747.748.75.75 0 0 1-.748-.748.75.75 0 0 1 .748-.748z"/><path id="AI" d="M302.693 279.43c-.061 0-.122.003-.179.01a2.21 2.21 0 0 0-.928 1.802c0 .395.104.765.286 1.086.241.147.518.234.821.234.863 0 1.563-.702 1.563-1.566s-.7-1.566-1.563-1.566z"/><path id="AJ" d="M302.969 279.754c-.413 0-.748.334-.748.747s.335.747.748.747a.75.75 0 0 0 .748-.747.75.75 0 0 0-.748-.747z"/><path id="AK" d="M282.827 281.036c.97 0 1.756-.786 1.756-1.756s-.786-1.757-1.756-1.757a1.76 1.76 0 0 0-1.757 1.757c0 .97.787 1.756 1.757 1.756z"/><path id="AL" d="M354.752 299.397l3.352-1.981 3.353 1.981-3.353 1.98-3.352-1.98z"/><path id="AM" d="M338.451 279.43a1.46 1.46 0 0 1 .176.01 2.21 2.21 0 0 1 .93 1.802c0 .395-.106.765-.287 1.086-.239.147-.518.234-.819.234a1.57 1.57 0 0 1-1.566-1.566 1.57 1.57 0 0 1 1.566-1.566z"/><path id="AN" d="M378.187 279.43a1.46 1.46 0 0 0-.178.01 2.21 2.21 0 0 0-.929 1.802c0 .395.104.765.286 1.086.241.147.518.234.821.234.863 0 1.563-.702 1.563-1.566s-.7-1.566-1.563-1.566z"/></defs></svg>