<svg xmlns="http://www.w3.org/2000/svg" width="640" height="481" viewBox="0 0 640 481">
  <g fill="none" fill-rule="evenodd" class="page 1">
    <g fill-rule="nonzero" class="page 1_group" transform="translate(0 .938)">
      <polygon fill="#244AA5" points="0 .1 0 480 640 480 640 0" class="page 1_group_path24801"/>
      <path fill="#CFA550" d="M325.8,158.36218 C328.2,161.46218 330.1,164.56218 330.1,168.36218 C327.7,169.56218 324.6,169.86218 323,171.86218 C333.7,170.36218 336,183.46218 347.9,178.36218 C348.7,180.26218 350.3,181.86218 352.6,181.06218 L353.8,177.56218 C358.5,176.06218 357.4,184.06218 362.5,182.56218 C364.9,184.86218 363.3,188.76218 364.9,191.46218 C364.9,194.56218 366.5,197.26218 367.7,199.96218 C368.9,198.46218 369.7,196.06218 372.8,196.86218 C375.2,199.16218 376.7,201.46218 377.1,204.16218 C376.3,209.16218 375.1,213.76218 380.3,216.46218 L380.3,217.96218 C383.9,219.46218 391.4,216.46218 391.4,222.56218 C391,224.86218 393.8,222.96218 394.6,224.06218 C397,223.26218 399.7,223.66218 402.5,223.66218 C404.5,228.26218 399.7,231.76218 398.6,235.96218 C400.6,238.26218 399.8,242.16218 399.4,244.86218 L398.2,245.66218 C401.4,246.46218 405.7,245.26218 408.9,247.16218 L414.4,249.46218 C417.2,247.96218 420.3,247.56218 423.5,247.96218 C426.3,249.86218 422.7,253.36218 425.1,254.86218 C427.9,254.86218 430.6,255.26218 431,257.96218 L431.4,258.76218 C433.8,254.86218 439.7,257.56218 442.5,254.56218 C446.8,254.56218 447.6,259.56218 449.6,262.26218 C450.4,269.16218 442.5,272.26218 444.9,279.16218 C443.3,282.66218 439.8,285.36218 437.4,288.36218 C438.2,288.76218 437.8,289.86218 437.8,290.66218 C435,292.16218 437.4,296.86218 433.9,297.16218 C433.5,300.26218 428,299.06218 430,302.16218 C433.6,306.76218 428,309.86218 428,314.06218 C426,316.36218 421.7,311.76218 421.7,316.36218 C418.9,317.16218 416.6,314.06218 414.6,316.76218 C413.8,319.86218 416.6,320.96218 416.2,324.06218 C420.5,323.66218 421.7,327.96218 423.3,330.56218 L427.6,335.16218 C423.3,338.66218 417.7,334.76218 412.6,336.66218 C411.4,335.86218 412.6,334.36218 411.4,333.56218 C409.8,332.06218 407.5,332.06218 405.1,331.66218 C405.5,333.56218 401.9,334.36218 403.5,336.66218 C403.5,337.46218 404.3,339.36218 402.7,339.36218 C399.1,340.56218 399.5,336.26218 396.4,337.86218 C392.5,339.36218 395.6,345.56218 390.1,344.76218 C390.9,350.16218 381.4,353.66218 387.7,358.26218 C388.9,359.46218 388.1,360.96218 388.5,362.46218 C384.6,365.96218 377.4,364.76218 373.1,363.26218 C369.5,362.46218 371.9,357.86218 370.3,355.56218 C369.1,353.26218 365.2,351.66218 365.2,348.66218 C362.8,347.46218 360.5,346.76218 358.9,344.46218 C352.6,350.66218 345.5,356.36218 336.8,356.76218 C332.9,358.66218 330.9,366.76218 324.6,363.26218 C322.2,367.46218 315.1,363.26218 314.7,369.06218 C311.9,370.26218 313.1,374.06218 311.5,375.96218 C310.7,380.16218 311.5,384.06218 315.1,386.76218 C316.7,390.26218 311.9,390.26218 313.9,393.26218 C314.3,394.46218 313.9,395.96218 313.1,396.36218 C311.9,397.16218 311.5,397.86218 311.9,399.06218 C310.7,399.06218 310.3,399.86218 309.5,400.56218 C308.3,402.86218 304.8,404.06218 302.4,405.56218 C300,406.36218 298.5,404.36218 296.9,402.86218 C296.5,405.16218 294.5,406.76218 292.2,406.76218 C288.6,406.76218 289.4,403.66218 286.7,402.16218 C287.9,398.26218 284.3,396.36218 285.5,392.96218 C288.3,390.66218 293,389.06218 291.8,384.46218 C288.6,380.56218 289.8,374.86218 286.7,370.56218 C284.7,368.66218 281.6,365.96218 282.8,361.66218 C285.6,358.16218 282.8,354.36218 281.2,350.86218 C280.4,347.76218 278.8,345.06218 278.8,341.66218 C274.1,338.96218 273.7,331.26218 267,330.46218 C262.3,330.46218 261.5,324.26218 256.7,324.66218 C256.3,323.86218 255.1,323.16218 254.3,322.36218 C250.7,324.66218 246.4,321.56218 242.1,322.76218 C239.3,317.76218 244.5,311.16218 237,308.16218 L237,305.06218 C237.8,305.46218 238.2,304.66218 238.6,304.26218 C239,300.76218 233.1,300.36218 235.4,296.56218 C234.2,295.36218 232.6,295.06218 233.4,292.66218 C230.2,285.76218 220.4,286.46218 218.4,279.56218 C220,278.06218 220,276.46218 220.8,274.96218 C219.2,272.26218 218.8,269.56218 219.2,266.46218 C220.8,266.06218 221.6,264.16218 222.4,262.56218 C220.4,261.06218 218.1,259.06218 216.1,259.86218 C212.2,259.06218 209.4,255.96218 205.8,254.06218 C205,253.26218 205.4,251.76218 205.4,250.56218 C210.1,249.06218 204.6,242.06218 210.5,242.86218 C212.1,240.96218 215.2,240.16218 217.6,238.66218 C220,238.26218 221.9,239.06218 224.3,239.86218 C226.3,242.56218 229.8,241.36218 231.8,243.76218 C233.8,243.36218 236.1,242.26218 238.5,243.36218 C238.5,239.46218 240.1,237.16218 242.8,234.46218 C243.2,232.96218 245.6,231.76218 247.5,230.96218 C251.1,231.76218 255.4,231.76218 258.2,229.06218 C259.8,230.26218 261.4,227.86218 263.3,227.86218 C265.7,227.46218 267.6,228.26218 269.2,229.36218 C269.6,224.76218 277.1,228.56218 278.7,223.16218 C280.3,219.66218 274,218.16218 274.4,215.06218 C273.2,211.56218 276,209.66218 277.2,207.36218 C278.8,206.56218 280.4,205.86218 282.3,206.16218 C287.4,204.26218 283.5,193.86218 291.4,197.66218 C291.4,198.86218 291,199.96218 291.8,200.36218 C294.6,200.36218 295,196.86218 296.9,195.76218 C297.7,192.66218 295.7,188.86218 298.5,186.56218 C299.7,186.16218 300.9,185.76218 301.7,184.66218 C301.7,182.36218 300.5,180.76218 298.5,179.26218 C297.7,180.46218 296.1,179.66218 294.9,180.06218 C294.9,177.36218 293.3,175.46218 292.9,173.16218 C291.7,172.36218 290.9,171.26218 291.3,169.66218 C293.3,167.76218 291.3,162.76218 296,163.86218 C297.6,162.36218 300.7,163.46218 302.3,160.76218 C307,158.06218 313,158.06218 316.5,153.06218 C318.1,153.46218 319.7,151.86218 321.2,153.06218 C321.5,156.76218 325.4,155.66218 325.8,158.36218" class="page 1_group_path35817 4"/>
      <polygon fill="#FFF" points="139.707 128.455 159.007 128.655 165.307 109.855 171.707 128.455 190.707 128.455 175.507 140.255 181.207 158.655 165.507 147.255 149.807 158.655 155.307 139.855" class="page 1_group_path35536"/>
      <polygon fill="#FFF" points="199.507 107.055 218.807 107.255 225.107 88.455 231.507 107.055 250.507 107.055 235.307 118.855 241.007 137.255 225.307 125.855 209.607 137.255 215.107 118.455" class="page 1_group_path35536 7"/>
      <polygon fill="#FFF" points="261.907 95.955 281.207 96.155 287.507 77.355 293.907 95.955 312.907 95.955 297.707 107.755 303.407 126.155 287.707 114.755 272.007 126.155 277.507 107.355" class="page 1_group_path35536 7 4"/>
      <polygon fill="#FFF" points="447.125 128.609 466.425 128.809 472.725 110.009 479.125 128.609 498.125 128.609 482.925 140.409 488.625 158.809 472.925 147.409 457.125 158.809 462.625 140.009" class="page 1_group_path35600" transform="matrix(-1 0 0 1 945.25 0)"/>
      <polygon fill="#FFF" points="387.325 107.209 406.625 107.409 412.925 88.609 419.325 107.209 438.325 107.209 423.125 119.009 428.825 137.409 413.125 126.009 397.425 137.409 402.925 118.609" class="page 1_group_path35602" transform="matrix(-1 0 0 1 825.65 0)"/>
      <polygon fill="#FFF" points="324.925 96.109 344.225 96.309 350.525 77.509 356.925 96.109 375.925 96.109 360.725 107.909 366.425 126.309 350.725 114.909 335.025 126.309 340.525 107.509" class="page 1_group_path35604" transform="matrix(-1 0 0 1 700.85 0)"/>
    </g>
  </g>
</svg>
