<svg xmlns="http://www.w3.org/2000/svg" width="21" height="20" viewBox="0 0 21 20">
  <g fill="none" fill-rule="evenodd" class="page 1">
    <path fill="#FFFFFE" d="M20.1222268,10.0611134 C20.1222268,4.50450982 15.617717,0 10.0611134,0 C4.50450982,0 0,4.50450982 0,10.0611134 C0,15.0829059 3.67920376,19.24522 8.48906443,20 L8.48906443,12.969404 L5.93448486,12.969404 L5.93448486,10.0611134 L8.48906443,10.0611134 L8.48906443,7.84452436 C8.48906443,5.32295781 9.99111792,3.93012242 12.2892963,3.93012242 C13.3900647,3.93012242 14.541453,4.12662854 14.541453,4.12662854 L14.541453,6.60260567 L13.2727701,6.60260567 C12.0229323,6.60260567 11.6331624,7.37815638 11.6331624,8.17380966 L11.6331624,10.0611134 L14.4235493,10.0611134 L13.9774804,12.969404 L11.6331624,12.969404 L11.6331624,20 C16.4430231,19.24522 20.1222268,15.0829059 20.1222268,10.0611134" class="page 1_fill 1"/>
  </g>
</svg>
