<svg xmlns="http://www.w3.org/2000/svg" width="20" height="20" viewBox="0 0 20 20">
  <g fill="none" fill-rule="evenodd" class="page 1">
    <g fill="#FFF" fill-rule="nonzero" class="page 1_instagram glyph white">
      <path d="M5.8525416,0.07 C4.7896056,0.1202 4.0637322,0.29 3.4291674,0.5396 C2.7724248,0.7958 2.215782,1.1396 1.6619364,1.696 C1.1080908,2.2524 0.7670322,2.81 0.5128866,3.4684 C0.2669328,4.105 0.1002996,4.8322 0.0533466,5.8968 C0.0063936,6.9614 -0.003996,7.3036 0.0011988,10.0192 C0.0063936,12.7348 0.0183816,13.0752 0.06993,14.142 C0.1206792,15.2058 0.28971,15.9322 0.5390604,16.5676 C0.7954038,17.225 1.1384604,17.782 1.6945038,18.3366 C2.2505472,18.8912 2.80719,19.2318 3.46653,19.4866 C4.101894,19.7324 4.8285666,19.9 5.8919022,19.9466 C6.9552378,19.9932 7.2974952,20.004 10.0095804,19.9988 C12.7216656,19.9936 13.0631238,19.9816 14.1286572,19.931 C15.1941906,19.8804 15.916068,19.71 16.5510324,19.4616 C17.207775,19.2044 17.7646176,18.8616 18.3182634,18.3048 C18.8719092,17.748 19.212768,17.19 19.4667138,16.5312 C19.7128674,15.8952 19.8801,15.1678 19.9262538,14.1042 C19.9728072,13.0368 19.9837962,12.696 19.9786014,9.9808 C19.9734066,7.2656 19.9612188,6.9252 19.9106694,5.8588 C19.86012,4.7924 19.6908894,4.0682 19.4417388,3.4324 C19.1849958,2.775 18.8423388,2.2184 18.2864952,1.6634 C17.7306516,1.1084 17.17281,0.7674 16.5148686,0.5138 C15.879105,0.2676 15.152832,0.0998 14.0894964,0.0538 C13.0261608,0.0078 12.6839034,-0.004 9.9708192,0.0012 C7.257735,0.0064 6.918075,0.018 5.8525416,0.07 M5.9692248,18.1476 C4.9951998,18.1052 4.4663292,17.9432 4.113882,17.8076 C3.6471492,17.6276 3.314682,17.41 2.9634336,17.0618 C2.6121852,16.7136 2.3964012,16.3796 2.2141836,15.9134 C2.0773206,15.5606 1.9124856,15.0318 1.8669312,14.0568 C1.8173808,13.003 1.8069912,12.6866 1.801197,10.0168 C1.7954028,7.347 1.8055926,7.031 1.8517464,5.9768 C1.8933048,5.0026 2.0561418,4.4726 2.1914064,4.12 C2.3712264,3.6522 2.5878096,3.32 2.9364606,2.9686 C3.2851116,2.6172 3.6177786,2.4008 4.083912,2.2184 C4.4359596,2.0808 4.9642308,1.9172 5.9378562,1.8708 C6.9914016,1.8208 7.3070856,1.8108 9.9738162,1.805 C12.6405468,1.7992 12.95703,1.8092 14.010975,1.8556 C14.9842008,1.898 15.5138706,2.0594 15.8657184,2.1956 C16.332651,2.3756 16.6649184,2.5918 17.015967,2.9414 C17.3670156,3.291 17.583399,3.6228 17.7656166,4.0904 C17.9032788,4.4418 18.0667152,4.9704 18.1126692,5.9456 C18.162819,7.0002 18.1742076,7.3164 18.1790028,9.9856 C18.183798,12.6548 18.1744074,12.9718 18.1282536,14.0256 C18.0856962,15.0006 17.9242578,15.5302 17.7885936,15.8834 C17.6087736,16.3504 17.3919906,16.6834 17.0431398,17.0346 C16.694289,17.3858 16.3620216,17.6022 15.8956884,17.7846 C15.5440404,17.922 15.0151698,18.086 14.0423436,18.1324 C12.9887982,18.182 12.6731142,18.1924 10.0053846,18.1982 C7.337655,18.204 7.02297,18.1932 5.9694246,18.1476 M14.1132709,4.6554 C14.1140817,5.14079005 14.4069318,5.57789009 14.8552502,5.76285551 C15.3035686,5.94782092 15.8190529,5.84422026 16.1613035,5.50036842 C16.503554,5.15651658 16.6051599,4.64013982 16.4187366,4.19205401 C16.2323133,3.7439682 15.7945794,3.45242989 15.309675,3.45339759 C14.6477518,3.45472425 14.1121681,3.99281384 14.1132709,4.6554 M4.8605251,10.01 C4.866129,12.846 7.1670258,15.1398 9.9995904,15.1344095 C12.832155,15.129 15.1252596,12.826 15.1198745,9.99 C15.1144704,7.154 12.8129742,4.8596 9.98001,4.86518977 C7.1470458,4.8708 4.85514,7.1744 4.8605251,10.01 M6.65992674,10.0064 C6.65629558,8.16541932 8.14426258,6.67005694 9.98340227,6.6664064 C11.822542,6.66276921 13.3164109,8.15222371 13.3200602,9.99320438 C13.3236962,11.8341851 11.8357331,13.3295513 9.9965934,13.3332074 C9.11337202,13.3350583 8.26559936,12.9855753 7.63983082,12.361656 C7.01406229,11.7377366 6.66157441,10.8905059 6.65992674,10.0064" class="page 1_instagram glyph white_shape"/>
    </g>
  </g>
</svg>
