<svg xmlns="http://www.w3.org/2000/svg" xmlns:xlink="http://www.w3.org/1999/xlink" width="29" height="20" viewBox="0 0 29 20">
  <defs>
    <polygon id="path-1" points=".01 .006 28.16 .006 28.16 19.84 .01 19.84"/>
  </defs>
  <g fill="none" fill-rule="evenodd" class="page 1">
    <g class="page 1_yt icon mono dark">
      <mask id="mask-2" fill="#fff">
        <use xlink:href="#path-1"/>
      </mask>
      <path fill="#FFFFFE" d="M11.2,14.10704 L11.2,5.73296 L18.56,9.92016 L11.2,14.10704 Z M27.57152,3.09808 C27.24768,1.87856 26.29344,0.91824 25.08192,0.59232 C22.88592,0 14.08,0 14.08,0 C14.08,0 5.27408,0 3.07808,0.59232 C1.86656,0.91824 0.91232,1.87856 0.58848,3.09808 C0,5.30832 0,9.92 0,9.92 C0,9.92 0,14.53152 0.58848,16.74192 C0.91232,17.96144 1.86656,18.92176 3.07808,19.24784 C5.27408,19.84 14.08,19.84 14.08,19.84 C14.08,19.84 22.88592,19.84 25.08192,19.24784 C26.29344,18.92176 27.24768,17.96144 27.57152,16.74192 C28.16,14.53152 28.16,9.92 28.16,9.92 C28.16,9.92 28.16,5.30832 27.57152,3.09808 L27.57152,3.09808 Z" class="page 1_yt icon mono dark_fill 1" mask="url(#mask-2)"/>
    </g>
  </g>
</svg>
